<?xml version="1.0" encoding="UTF-8" standalone="no"?>
<!-- Created with Inkscape (http://www.inkscape.org/) -->

<svg
   width="210mm"
   height="297mm"
   viewBox="0 0 210 297"
   version="1.1"
   id="svg1"
   inkscape:version="1.3.2 (091e20e, 2023-11-25)"
   sodipodi:docname="blob_mage.svg"
   xml:space="preserve"
   xmlns:inkscape="http://www.inkscape.org/namespaces/inkscape"
   xmlns:sodipodi="http://sodipodi.sourceforge.net/DTD/sodipodi-0.dtd"
   xmlns="http://www.w3.org/2000/svg"
   xmlns:svg="http://www.w3.org/2000/svg"><sodipodi:namedview
     id="namedview1"
     pagecolor="#ffffff"
     bordercolor="#000000"
     borderopacity="0.25"
     inkscape:showpageshadow="2"
     inkscape:pageopacity="0.0"
     inkscape:pagecheckerboard="0"
     inkscape:deskcolor="#d1d1d1"
     inkscape:document-units="mm"
     inkscape:zoom="0.8409652"
     inkscape:cx="609.4188"
     inkscape:cy="155.77339"
     inkscape:window-width="2560"
     inkscape:window-height="1027"
     inkscape:window-x="0"
     inkscape:window-y="25"
     inkscape:window-maximized="1"
     inkscape:current-layer="layer1"
     showguides="true"><sodipodi:guide
       position="119.24046,47.822035"
       orientation="0,-1"
       id="guide4"
       inkscape:locked="false" /><sodipodi:guide
       position="123.35905,183.09589"
       orientation="1,0"
       id="guide3"
       inkscape:locked="false" /><sodipodi:guide
       position="55.372882,220.39036"
       orientation="0,-1"
       id="guide6"
       inkscape:locked="false" /><sodipodi:guide
       position="107.00758,169.85898"
       orientation="0,-1"
       id="guide9"
       inkscape:locked="false" /><sodipodi:guide
       position="73.525997,260.84879"
       orientation="1,0"
       id="guide10"
       inkscape:locked="false" /></sodipodi:namedview><defs
     id="defs1" /><g
     inkscape:label="Layer 1"
     inkscape:groupmode="layer"
     id="layer1"><rect
       style="opacity:1;fill:#e8b05b;fill-opacity:1;stroke:none;stroke-width:3.175;stroke-linecap:round;stroke-dasharray:none;paint-order:stroke fill markers"
       id="rect3895"
       width="77.710808"
       height="70.789192"
       x="63.395657"
       y="66.227226" /><ellipse
       style="opacity:0.33;fill:#000000;fill-opacity:1;stroke:none;stroke-width:3.175;stroke-linecap:round;stroke-dasharray:none;paint-order:stroke fill markers"
       id="path3895"
       cx="101.6127"
       cy="122.91412"
       rx="21.523874"
       ry="4.3381453" /><path
       style="fill:#474c88;fill-opacity:1;stroke:#000000;stroke-width:2.22552;stroke-dasharray:none;paint-order:stroke fill markers"
       d="m 113.02479,87.062649 c -0.0927,-0.0927 -1.16576,-0.65481 -1.77796,-0.93135 -3.03748,-1.37206 -6.36009,-2.26686 -9.6975,-2.61161 -1.20398,-0.12437 -3.266985,-0.11373 -4.151925,0.0215 -0.37121,0.0567 -2.176699,1.925821 -2.185659,1.918721 -0.0246,-0.0198 1.972569,-2.636331 2.665099,-3.663061 2.202845,-3.26588 4.247425,-5.34504 6.755745,-6.87005 1.5352,-0.93338 3.67769,-1.75751 4.56553,-1.75619 1.62674,0.002 4.23909,2.22991 7.36212,6.27751 0.24058,0.31181 0.49825,0.64484 0.57257,0.74005 0.19278,0.24692 0.38449,0.26491 1.35961,0.12752 0.46093,-0.065 0.84689,-0.10925 0.85769,-0.0985 0.0447,0.0447 -0.30521,0.62039 -0.53679,0.88304 -0.32443,0.368 -1.0078,0.88048 -1.4737,1.10519 -0.34115,0.16455 -0.41081,0.17833 -0.90939,0.17978 -0.53248,0.002 -1.04407,-0.10596 -1.51182,-0.3177 -0.0891,-0.0403 -0.28347,-0.12134 -0.43195,-0.18004 -0.63604,-0.25147 -1.21487,-0.55047 -1.21487,-0.62755 0,-0.10371 -0.43444,-1.60912 -0.68345,-2.36826 -0.24231,-0.73876 -0.43333,-0.93471 -0.77373,-0.7937 -0.19637,0.0814 -0.28749,0.30417 -0.25842,0.63191 0.0126,0.14259 0.60459,3.221641 0.77162,4.038291 0.33863,1.65567 1.43067,6.416515 1.5619,7.165325 0.0468,0.26728 -0.76347,-3.048446 -0.74712,-2.966786 0.0301,0.15011 -0.0214,0.19222 -0.1176,0.096 z"
       id="path125"
       sodipodi:nodetypes="sssscsscscccssccsssccsccss" /><path
       style="fill:#4864a1;fill-opacity:1;stroke:#000000;stroke-width:2.22552;stroke-dasharray:none;paint-order:stroke fill markers"
       d="m 114.08151,92.157429 c -0.31358,-0.17008 -0.88045,-0.44181 -2.31259,-1.10855 -2.97731,-1.38612 -6.95151,-2.51941 -10.37596,-2.95882 -1.730275,-0.22203 -2.154185,-0.24629 -4.184535,-0.23951 -1.67067,0.005 -2.12154,0.024 -2.75368,0.11309 -0.41576,0.0585 -1.511689,1.397502 -1.522149,1.389102 -0.0267,-0.0212 1.840989,-3.328132 2.104679,-3.731812 0.24973,-0.38232 0.34109,-0.43275 1.14527,-0.63224 0.99104,-0.24583 1.35034,-0.27657 3.21263,-0.27479 1.333755,7e-4 1.936195,0.0242 2.510725,0.0956 4.03579,0.50176 7.90307,1.7056 10.74477,3.34472 0.78074,0.45034 1.02854,0.65889 1.15196,0.96949 0.19514,0.49109 0.34516,1.17325 0.64769,2.94513 0.0266,0.15589 0.28913,1.363922 0.27093,1.362652 -0.0182,-7e-4 -0.44669,-1.169402 -0.63972,-1.274132 z"
       id="path110"
       sodipodi:nodetypes="csscccssccsssccc" /><path
       style="fill:#444a84;fill-opacity:1;stroke:#000000;stroke-width:2.22552;stroke-dasharray:none;paint-order:stroke fill markers"
       d="m 88.569415,95.652929 c -1.33845,-0.58845 -3.188117,-2.123512 -3.889247,-2.707002 -0.37707,-0.31381 2.244143,-1.23198 3.393893,-1.40003 1.11421,-0.16284 1.268556,1.090304 2.277366,1.053244 l 0.9078,-0.0334 -0.718082,1.060638 c -0.364018,0.537669 -1.18883,2.14649 -1.18883,2.2838 0,0.0857 -0.0105,0.0823 -0.7829,-0.25731 z"
       id="path99"
       sodipodi:nodetypes="cssccsscc" /><path
       style="fill:#474c88;fill-opacity:1;stroke:#000000;stroke-width:2.22552;stroke-linecap:butt;stroke-linejoin:round;stroke-dasharray:none;paint-order:stroke fill markers"
       d="m 120.24147,99.401501 c -4.80375,0.520206 -1.94404,-0.41866 -2.59171,-0.59636 -0.3712,-0.10187 -0.74843,-0.739982 -1.03055,-0.817212 -0.28212,-0.0772 -0.61013,-0.17091 -0.72892,-0.20814 -0.11879,-0.0372 -0.3982,-0.12109 -0.62093,-0.18633 -1.39184,-0.40771 -5.00817,-1.69147 -7.59901,-2.69759 -3.97228,-1.54258 -7.934895,-2.55875 -11.406685,-2.92514 -2.84564,-0.30031 -7.20195,-0.23781 -9.74515,0.13982 -0.300828,0.05822 -2.10604,0.450334 -2.128503,0.435364 -0.106109,-0.173633 1.473246,-0.798974 2.68468,-1.27146 1.14946,-0.448314 4.630473,-1.526454 6.003203,-1.857814 0.44408,-0.1072 1.20075,-0.22447 1.99777,-0.30964 1.16658,-0.12465 4.63683,-0.0419 5.858335,0.1396 0.0891,0.0132 0.44141,0.0636 0.78292,0.11178 1.93011,0.2726 4.01863,0.7797 6.30049,1.52977 0.52263,0.1718 2.24295,0.81935 2.53986,0.95604 0.0959,0.0442 0.26597,0.11266 0.37796,0.15224 0.33988,0.12014 1.54657,0.53589 2.34784,0.96158 2.17985,1.15807 1.34186,0.666246 3.6711,2.557236 0.63405,0.51474 4.13188,4.795165 4.02139,4.791955 -0.0445,-7e-4 -2.35503,-1.825029 -2.05155,-1.652909 z"
       id="path90"
       sodipodi:nodetypes="ccsssssccsssccscssscsc" /><path
       style="fill:#815227;fill-opacity:1;stroke:#000000;stroke-width:2.22552;stroke-dasharray:none;paint-order:stroke fill markers"
       d="m 81.644695,99.871259 c -0.30412,-0.0631 -0.39145,-0.10202 -0.39145,-0.17471 0,-0.49117 -0.61479,-5.72323 -0.86293,-7.34386 -0.29144,-1.90333 -0.34073,-2.37281 -0.30884,-2.94144 0.0485,-0.86453 0.16755,-1.19531 1.13055,-3.14068 0.84722,-1.71144 1.09182,-2.31249 1.37016,-3.36681 0.13256,-0.5021 0.13233,-1.49534 -4.3e-4,-1.88978 -0.52952,-1.57328 -1.89855,-2.40591 -3.10353,-1.88755 -0.36922,0.15884 -0.82113,0.64678 -0.98382,1.06228 -0.17558,0.44845 -0.18104,1.24247 -0.0107,1.56089 0.29299,0.54773 0.96951,0.78588 1.07203,0.37739 0.019,-0.0756 -0.0217,-0.25257 -0.10215,-0.4439 -0.17439,-0.41494 -0.20789,-0.6482 -0.13043,-0.90822 0.13544,-0.45467 0.65092,-0.74002 1.10854,-0.61367 0.6966,0.19234 1.09613,1.19879 0.85286,2.14838 -0.17123,0.66838 -0.53114,1.12475 -1.12458,1.42595 -1.03678,0.52625 -2.14643,0.3223 -2.95619,-0.54333 -0.52227,-0.5583 -0.75044,-1.13142 -0.79618,-1.9998 -0.044,-0.83603 0.13285,-1.55486 0.58349,-2.37125 0.56012,-1.01468 1.22528,-1.57984 2.16072,-1.83588 0.53427,-0.14624 1.52108,-0.13512 2.07201,0.0233 0.80942,0.23282 1.44704,0.65797 2.03918,1.35966 0.34754,0.41185 0.5026,0.65031 0.7705,1.18494 0.56569,1.12887 0.72468,2.19811 0.50625,3.40454 -0.14242,0.78659 -0.50576,1.58048 -1.76688,3.86056 -0.79457,1.43655 -0.88955,1.63431 -1.03227,2.14943 -0.15641,0.56453 -0.18991,1.19494 -0.11532,2.17008 0.0341,0.44544 0.0978,1.30799 0.14164,1.91678 0.0438,0.60878 0.0918,1.22835 0.10671,1.37684 0.0149,0.14849 0.0632,0.74377 0.10734,1.32285 0.16621,2.1786 0.24206,3.28067 0.25638,3.72557 0.0172,0.535971 0.0381,0.522181 -0.59264,0.39139 z"
       id="path83" /><path
       style="fill:#444a84;fill-opacity:1;stroke:#000000;stroke-width:2.22552;stroke-dasharray:none;paint-order:stroke fill markers"
       d="m 115.73248,101.20226 c -0.0222,-0.0654 -0.0533,-0.2671 -0.16998,-1.10147 -0.0125,-0.0891 -0.0466,-0.332061 -0.0758,-0.539941 -0.0292,-0.20786 -0.0537,-0.4309 -0.0543,-0.49562 l -0.001,-0.11768 0.34257,0.098 c 0.18841,0.0539 0.59539,0.02295 0.90439,0.09951 1.75842,0.43562 3.27362,0.937687 3.74747,1.038937 0.29697,0.0635 0.55952,0.134 0.58344,0.15678 0.0239,0.0228 -0.0247,0.0673 -0.10799,0.0991 -0.0833,0.0317 -0.30942,0.11823 -0.50244,0.19221 -0.4566,0.17502 -1.27785,0.39106 -1.75481,0.46162 -0.66592,0.0986 -0.84492,0.11274 -1.87487,0.14878 -0.84114,0.0294 -1.01529,0.0226 -1.03663,-0.0402 z"
       id="path78"
       sodipodi:nodetypes="ccsccsccscscccc" /><path
       style="fill:#815ea1;fill-opacity:1;stroke:#000000;stroke-width:2.22552;stroke-dasharray:none;paint-order:stroke fill markers"
       d="m 80.944735,106.47443 c -0.56518,-0.17664 -1.04829,-0.61156 -1.3169,-1.18556 -0.55026,-1.17588 -0.36022,-3.01375 0.38909,-3.76308 0.33288,-0.33286 0.60129,-0.44209 1.10135,-0.44816 0.49684,-0.006 0.46986,-0.0648 0.29107,0.63423 -0.10887,0.4256 -0.11584,0.52129 -0.0641,0.88029 0.10046,0.69733 0.47527,1.2973 1.04667,1.67544 0.11822,0.0782 0.22993,0.20361 0.25096,0.28168 0.0635,0.2356 0.0439,0.8271 -0.0367,1.10809 -0.19083,0.66537 -0.95086,1.03914 -1.66143,0.81707 z"
       id="path65" /><path
       style="fill:#815ea1;fill-opacity:1;stroke:#000000;stroke-width:2.22552;stroke-dasharray:none;paint-order:stroke fill markers"
       d="m 85.113815,108.20371 c -0.0594,-0.0391 -0.35097,-0.22536 -0.64793,-0.41384 -0.29696,-0.18846 -0.55583,-0.36542 -0.57525,-0.39323 -0.0194,-0.0278 -0.0511,-0.17722 -0.0705,-0.33202 -0.0194,-0.1548 -0.0695,-0.41167 -0.11149,-0.57081 -0.0658,-0.24918 -0.0658,-0.33078 -1.6e-4,-0.58765 0.0419,-0.16406 0.11506,-0.56348 0.1626,-0.88759 0.0955,-0.65108 0.0963,-0.65325 0.30513,-0.82899 0.25957,-0.21842 0.40815,-0.9305 0.19413,-0.93041 -0.0365,0 -0.19428,0.0486 -0.35051,0.10798 -0.34151,0.1298 -0.54365,0.1358 -0.81106,0.024 -0.63802,-0.26651 -0.92913,-1.04641 -0.65953,-1.76696 0.12273,-0.32805 0.3135,-0.53505 0.60553,-0.65703 0.4311,-0.18008 0.84114,-0.0491 1.24184,0.39653 0.30369,0.33778 0.45331,0.71273 0.55517,1.39126 0.0873,0.58167 0.18843,0.826 0.42492,1.02683 0.17257,0.14653 1.26549,0.68733 1.51626,0.75027 0.0762,0.0191 0.15058,0.0542 0.16521,0.0778 0.0721,0.11667 -1.65576,3.6713 -1.7824,3.66684 -0.0297,-7e-4 -0.10259,-0.034 -0.16199,-0.0731 z"
       id="path63" /><path
       style="fill:#815227;fill-opacity:1;stroke:#000000;stroke-width:2.22552;stroke-dasharray:none;paint-order:stroke fill markers"
       d="m 82.914515,123.01248 c -0.19328,-0.0707 -0.24025,-0.2613 -0.28385,-1.15242 -0.0189,-0.38606 -0.0811,-1.50373 -0.13815,-2.48372 -0.0571,-0.97998 -0.11654,-2.01262 -0.13213,-2.29473 -0.0156,-0.28212 -0.0512,-0.92599 -0.0793,-1.43084 -0.028,-0.50485 -0.0653,-1.23376 -0.0828,-1.61982 -0.036,-0.79376 -0.12124,-2.3758 -0.163,-3.02366 -0.0345,-0.535 -0.12462,-2.02269 -0.16847,-2.78067 l -0.0328,-0.56694 0.31704,-0.0973 c 0.17437,-0.0535 0.34519,-0.10946 0.37961,-0.12435 0.0668,-0.029 0.10356,0.1034 0.15161,0.54558 0.0502,0.46185 0.23793,2.92421 0.29641,3.88756 0.0306,0.50485 0.068,1.10012 0.083,1.32285 0.015,0.22272 0.0639,1.04883 0.10855,1.83579 0.0447,0.78696 0.10549,1.80744 0.13505,2.26774 0.0296,0.4603 0.0661,1.03128 0.0812,1.26886 0.0439,0.69182 0.1878,2.78031 0.21379,3.10463 0.0992,1.23819 0.1078,1.10315 -0.0802,1.26136 -0.17725,0.14914 -0.35293,0.17237 -0.60555,0.0801 z"
       id="path28" /><path
       style="fill:#825fa3;fill-opacity:1;stroke:#000000;stroke-width:2.22552;stroke-dasharray:none;paint-order:stroke fill markers"
       d="m 100.47506,124.93136 c -3.083235,-0.15962 -4.216455,-0.27288 -5.939335,-0.59359 -2.28842,-0.42597 -4.3205,-1.10951 -5.59382,-1.88162 -1.90643,-1.15601 -3.07481,-2.58946 -3.74264,-4.59169 -0.3384,-1.01458 -0.40856,-1.49484 -0.40624,-2.78068 0.002,-1.20249 0.0572,-1.64642 0.35451,-2.86168 0.35137,-1.43601 0.52996,-1.89689 1.64762,-4.25168 1.80309,-3.79898 1.99438,-4.32917 2.44964,-6.79005 0.5174,-2.796701 0.7537,-3.709991 1.29179,-4.992681 0.42153,-1.00484 1.28951,-2.48872 1.767,-3.02085 l 0.21394,-0.23842 1.29257,0.0636 c 1.64085,0.0807 2.50444,0.17282 4.11026,0.43856 1.52895,0.25301 2.525605,0.46016 3.769565,0.78348 2.16443,0.56256 3.32627,0.94713 6.37127,2.10888 1.62357,0.61943 4.74634,1.75912 6.05783,2.21086 0.0787,0.0271 0.0887,0.0861 0.26182,1.539721 0.24978,2.09755 0.39956,2.76006 0.80755,3.57201 0.40601,0.80799 0.92355,1.44483 2.09781,2.58133 1.28293,1.2417 2.15902,2.53898 2.54192,3.76397 0.64685,2.06939 0.32983,4.16461 -0.79635,5.26318 -0.84893,0.8281 -2.03064,1.04496 -2.68659,0.49301 -0.23489,-0.19765 -0.32868,-0.41483 -0.40782,-0.94436 -0.0711,-0.47576 -0.15567,-0.69074 -0.27173,-0.69074 -0.0351,0 -0.0803,0.0789 -0.10059,0.17549 -0.0203,0.0965 -0.11202,0.25443 -0.20386,0.35095 -0.23388,0.24576 -0.401,0.23279 -0.6955,-0.054 -0.42997,-0.41869 -0.55525,-0.88943 -0.39924,-1.50009 0.1131,-0.4427 0.2811,-0.70119 0.71151,-1.09482 0.41672,-0.38109 0.49463,-0.57748 0.40341,-1.01689 -0.18326,-0.88275 -0.95349,-1.88075 -2.08277,-2.69866 -0.9954,-0.72095 -1.70846,-0.74191 -1.63063,-0.0479 0.0301,0.26871 0.11636,0.36024 0.97965,1.03984 0.50005,0.39366 1.10301,1.11377 1.3298,1.5882 l 0.15903,0.33267 -0.31585,0.31585 c -0.59777,0.59777 -0.95449,1.65275 -0.83629,2.47326 0.1256,0.87183 0.66502,1.58844 1.43784,1.91016 0.22428,0.0934 0.43726,0.16976 0.4733,0.16976 0.036,0 0.23159,0.16803 0.43454,0.37341 0.52718,0.53349 1.17774,0.81445 1.88587,0.81445 0.35446,0 1.02779,-0.16104 1.34062,-0.32064 0.12001,-0.0613 0.2293,-0.11131 0.24287,-0.11131 0.061,0 0.15294,0.62402 0.18072,1.22618 0.0467,1.01156 -0.10258,1.71869 -0.5518,2.61457 -0.41692,0.83146 -0.96897,1.43424 -1.83605,2.00478 -2.362,1.55418 -6.2815,2.22406 -13.30947,2.27471 -1.3512,0.0101 -2.61465,0.009 -2.80768,-4.7e-4 z"
       id="path18" /><path
       style="fill:#000000;fill-opacity:1;stroke:none;stroke-width:2.22552;stroke-dasharray:none;paint-order:stroke fill markers"
       d="m 95.612402,100.95691 c 0.81798,-0.45938 1.24489,-2.405385 0.80807,-3.683486 -0.27775,-0.81267 -1.01103,-1.1847 -1.53051,-0.77651 -0.42799,0.3363 -0.8126,1.06834 -0.95654,1.820641 -0.24715,1.29165 0.0849,2.419855 0.79593,2.704655 0.23681,0.0948 0.65264,0.0641 0.88305,-0.0653 z"
       id="path21" /><path
       style="fill:#000000;fill-opacity:1;stroke:none;stroke-width:2.22552;stroke-dasharray:none;paint-order:stroke fill markers"
       d="m 105.9933,101.42185 c 0.76666,-0.47616 1.122,-1.915605 0.78875,-3.195075 -0.10332,-0.39667 -0.20588,-0.601901 -0.4339,-0.868301 -0.57471,-0.67142 -1.40725,-0.42234 -1.87246,0.560201 -0.23639,0.49926 -0.31444,0.84297 -0.34391,1.5145 -0.0245,0.55757 -0.0125,0.701415 0.0861,1.031555 0.29222,0.97918 1.06724,1.39699 1.77545,0.95712 z"
       id="path20" /><path
       style="fill:#000000;fill-opacity:1;stroke:none;stroke-width:2.22552;stroke-dasharray:none;paint-order:stroke fill markers"
       d="m 101.28177,104.37704 c 0.99126,-0.25325 2.00942,-0.93971 2.09857,-1.4149 0.0655,-0.34883 -0.13876,-0.65395 -0.48058,-0.71807 -0.22782,-0.0428 -0.48601,0.0613 -0.76162,0.30712 -0.52666,0.46961 -1.16177,0.69912 -1.93626,0.69975 -0.963978,7e-4 -1.646778,-0.24943 -2.180838,-0.79916 -0.40309,-0.4149 -0.5783,-0.5241 -0.85005,-0.52978 -0.32918,-0.007 -0.5057,0.18302 -0.5057,0.54402 0,0.80683 1.20497,1.70546 2.67269,1.99318 0.4987,0.0978 1.386388,0.0603 1.943788,-0.0822 z"
       id="path19" /><path
       style="opacity:0.33;fill:#000000;fill-opacity:1;stroke:none;stroke-width:3.175;stroke-linecap:round;stroke-dasharray:none;paint-order:stroke fill markers"
       d="m 113.60975,97.346468 c -1.59988,-3.544764 -3.65644,-7.071523 -3.74463,-11.067884 -0.22153,-2.688039 -0.42257,-6.873706 1.04649,-9.256445 0.9743,-1.042921 2.7237,0.998666 3.12253,2.195228 0.66763,1.972551 3.14738,2.536602 4.96319,1.983325 -0.66792,1.581986 -2.716,1.667437 -4.17487,1.406551 -1.00513,-0.838818 -2.27056,-0.370675 -1.60648,1.017703 0.44524,1.716976 0.53897,3.503307 1.00922,5.219909 0.38621,1.519947 0.63459,3.103547 1.09587,4.586092 1.19748,1.620566 2.99035,2.912033 4.36964,4.340298 1.17501,0.839557 2.64824,1.780203 1.64579,3.156245 -1.0007,1.05663 -2.53566,0.15637 -3.75647,0.62352 -0.94831,0.76733 -2.86072,0.23826 -2.31136,-1.21065 -0.005,-1.176586 -0.52282,-2.489188 -1.65892,-2.993892 z"
       id="path3889"
       sodipodi:nodetypes="cccccccccccccc" /><path
       style="opacity:0.33;fill:#000000;fill-opacity:1;stroke:none;stroke-width:3.175;stroke-linecap:round;stroke-dasharray:none;paint-order:stroke fill markers"
       d="m 90.099935,95.995364 c 0.345904,-3.559826 4.136241,-3.977034 6.881996,-3.215196 6.077879,0.502558 11.642599,3.275569 17.367119,5.161799 1.13727,2.801433 0.71941,6.329313 3.66106,8.175183 2.14957,2.42081 4.03259,6.99581 1.25165,9.56654 -1.70956,2.46006 -5.87475,-1.61368 -1.89092,-1.0072 4.06278,-1.05139 1.31558,-6.8728 -1.10238,-8.65305 -2.84571,-1.60634 -1.41684,-6.582437 -5.06932,-7.168622 -4.87787,-1.469717 -9.7004,-3.527915 -14.901702,-3.339021 -2.074349,-0.06936 -4.164547,0.04153 -6.197503,0.479567 z"
       id="path3890" /><path
       style="opacity:0.33;fill:#000000;fill-opacity:1;stroke:none;stroke-width:3.175;stroke-linecap:round;stroke-dasharray:none;paint-order:stroke fill markers"
       d="m 88.876356,120.18886 c 11.401554,9.08325 36.833164,1.01171 26.592444,-4.64023 -1.85185,-0.4762 -1.20629,-2.74379 -1.13427,-4.44069 0.0648,-1.52777 -0.44056,-2.60874 -1.83333,-1.23036 -0.0858,3.12856 1.36666,8.19625 -2.60523,9.60486 -6.85235,2.88183 -14.171414,1.94427 -20.338215,0.17592 -0.548114,-0.15717 -0.863012,0.0552 -0.681399,0.5305 z"
       id="path3891"
       sodipodi:nodetypes="ccsccsc" /><ellipse
       style="opacity:1;fill:#b392c6;fill-opacity:1;stroke:none;stroke-width:3.175;stroke-linecap:round;stroke-dasharray:none;paint-order:stroke fill markers"
       id="path3892"
       cx="88.093216"
       cy="114.99311"
       rx="1.4944385"
       ry="2.2023304" /><path
       style="opacity:0.33;fill:#000000;fill-opacity:1;stroke:none;stroke-width:3.175;stroke-linecap:round;stroke-dasharray:none;paint-order:stroke fill markers"
       d="m 87.541543,104.05986 c -0.922795,-0.40042 -2.057638,-0.68399 -2.338096,-1.80488 -0.680568,-0.52446 -0.456007,1.26866 -1.253324,1.37456 -0.637939,0.35092 -1.751101,-0.35189 -1.718799,0.80606 -0.217281,1.0318 -1.082803,1.682 -2.004201,1.98622 0.422217,0.68255 1.297499,0.6325 2.005513,0.72042 0.682452,-0.15028 1.433733,-0.0813 1.624852,0.69513 0.490133,0.38668 1.350399,1.29936 1.903222,0.58464 0.420486,-0.77095 0.86118,-1.52444 1.308667,-2.28172 0.414438,-0.62159 0.416138,-1.36529 0.472166,-2.08043 z"
       id="path3893" /><path
       style="opacity:0.33;fill:#000000;fill-opacity:1;stroke:none;stroke-width:3.175;stroke-linecap:round;stroke-dasharray:none;paint-order:stroke fill markers"
       d="m 79.08772,80.14445 c 0.563376,1.011667 0.956201,3.198644 -0.792072,3.119462 -1.11644,-0.01072 -1.200346,1.251011 -0.03872,1.33334 1.179862,0.696153 2.411969,-0.717691 3.326833,-0.373459 1.210265,1.623525 1.81886,-1.117056 1.948131,-2.051108 0.413571,-1.284847 -0.388066,-2.717708 -1.568892,-3.269845 -1.009178,-0.209652 -1.932368,0.924792 -2.875276,1.24161 z"
       id="path3894" /></g></svg>
