<?xml version="1.0" encoding="UTF-8" standalone="no"?>
<!-- Created with Inkscape (http://www.inkscape.org/) -->

<svg
   width="210mm"
   height="297mm"
   viewBox="0 0 210 297"
   version="1.1"
   id="svg1"
   xml:space="preserve"
   inkscape:version="1.4.2 (ebf0e940, 2025-05-08)"
   sodipodi:docname="stones.svg"
   xmlns:inkscape="http://www.inkscape.org/namespaces/inkscape"
   xmlns:sodipodi="http://sodipodi.sourceforge.net/DTD/sodipodi-0.dtd"
   xmlns="http://www.w3.org/2000/svg"
   xmlns:svg="http://www.w3.org/2000/svg"><sodipodi:namedview
     id="namedview1"
     pagecolor="#ffffff"
     bordercolor="#000000"
     borderopacity="0.25"
     inkscape:showpageshadow="2"
     inkscape:pageopacity="0.0"
     inkscape:pagecheckerboard="0"
     inkscape:deskcolor="#d1d1d1"
     inkscape:document-units="mm"
     inkscape:zoom="1.5013415"
     inkscape:cx="121.55795"
     inkscape:cy="552.83889"
     inkscape:window-width="1680"
     inkscape:window-height="997"
     inkscape:window-x="0"
     inkscape:window-y="25"
     inkscape:window-maximized="1"
     inkscape:current-layer="layer1" /><defs
     id="defs1"><filter
       inkscape:collect="always"
       style="color-interpolation-filters:sRGB"
       id="filter26"
       x="-0.42577311"
       y="-0.38494548"
       width="1.8515462"
       height="1.769891"><feGaussianBlur
         inkscape:collect="always"
         stdDeviation="2.0559752"
         id="feGaussianBlur26" /></filter><filter
       inkscape:collect="always"
       style="color-interpolation-filters:sRGB"
       id="filter27"
       x="-0.91308117"
       y="-0.31461132"
       width="2.8261623"
       height="1.6292226"><feGaussianBlur
         inkscape:collect="always"
         stdDeviation="0.90589446"
         id="feGaussianBlur27" /></filter><filter
       inkscape:collect="always"
       style="color-interpolation-filters:sRGB"
       id="filter44"
       x="-0.024204259"
       y="-0.022919984"
       width="1.0555986"
       height="1.044145"><feGaussianBlur
         inkscape:collect="always"
         stdDeviation="0.13268125"
         id="feGaussianBlur44" /></filter><filter
       inkscape:collect="always"
       style="color-interpolation-filters:sRGB"
       id="filter44-1"
       x="-0.024204277"
       y="-0.023525188"
       width="1.0555987"
       height="1.0447256"><feGaussianBlur
         inkscape:collect="always"
         stdDeviation="0.13268125"
         id="feGaussianBlur44-4" /></filter><filter
       inkscape:collect="always"
       style="color-interpolation-filters:sRGB"
       id="filter54"
       x="-0.39440017"
       y="-0.42294228"
       width="1.7888003"
       height="1.8458846"><feGaussianBlur
         inkscape:collect="always"
         stdDeviation="2.3602958"
         id="feGaussianBlur54" /></filter><filter
       inkscape:collect="always"
       style="color-interpolation-filters:sRGB"
       id="filter54-4"
       x="-0.39440017"
       y="-0.42294228"
       width="1.7888003"
       height="1.8458846"><feGaussianBlur
         inkscape:collect="always"
         stdDeviation="2.3602958"
         id="feGaussianBlur54-7" /></filter><filter
       inkscape:collect="always"
       style="color-interpolation-filters:sRGB"
       id="filter54-2"
       x="-0.28078624"
       y="-0.30110629"
       width="1.5615725"
       height="1.6022126"><feGaussianBlur
         inkscape:collect="always"
         stdDeviation="1.6803709"
         id="feGaussianBlur54-4" /></filter><filter
       inkscape:collect="always"
       style="color-interpolation-filters:sRGB"
       id="filter55"
       x="-0.9019543"
       y="-0.58125948"
       width="2.8039086"
       height="2.162519"><feGaussianBlur
         inkscape:collect="always"
         stdDeviation="3.3953089"
         id="feGaussianBlur55" /></filter><filter
       inkscape:collect="always"
       style="color-interpolation-filters:sRGB"
       id="filter64"
       x="-0.20892439"
       y="-0.20797372"
       width="1.4178488"
       height="1.4159474"><feGaussianBlur
         inkscape:collect="always"
         stdDeviation="1.1062214"
         id="feGaussianBlur64" /></filter><filter
       inkscape:collect="always"
       style="color-interpolation-filters:sRGB"
       id="filter64-0"
       x="-0.20892439"
       y="-0.20797372"
       width="1.4178488"
       height="1.4159474"><feGaussianBlur
         inkscape:collect="always"
         stdDeviation="1.1062214"
         id="feGaussianBlur64-0" /></filter></defs><g
     inkscape:label="Layer 1"
     inkscape:groupmode="layer"
     id="layer1"><rect
       style="opacity:0;fill:#1a1a1a;fill-opacity:1;stroke:none;stroke-width:0;stroke-linecap:butt;stroke-linejoin:bevel;stroke-dasharray:none"
       id="rect17-4"
       width="30.787891"
       height="30.488012"
       x="35.899025"
       y="131.18219"
       ry="0"
       inkscape:export-filename="../phaser/public/assets/blue-stone.png"
       inkscape:export-xdpi="164.01567"
       inkscape:export-ydpi="164.01567" /><rect
       style="opacity:0;fill:#ff0000;fill-opacity:1;stroke:none;stroke-width:0;stroke-linecap:butt;stroke-linejoin:bevel;stroke-dasharray:none"
       id="rect17-4-1"
       width="30.787891"
       height="30.488012"
       x="144.61021"
       y="127.55759"
       ry="0"
       inkscape:export-filename="../phaser/public/assets/yellow-stone.png"
       inkscape:export-xdpi="164.01567"
       inkscape:export-ydpi="164.01567" /><rect
       style="opacity:0;fill:#f9f9f9;fill-opacity:1;stroke:none;stroke-width:0;stroke-linecap:butt;stroke-linejoin:bevel;stroke-dasharray:none"
       id="rect17-8"
       width="34.16922"
       height="33.836407"
       x="104.31504"
       y="179.05678"
       ry="0"
       inkscape:export-filename="../phaser/public/assets/green-stone.png"
       inkscape:export-xdpi="164.01567"
       inkscape:export-ydpi="164.01567" /><rect
       style="opacity:0.33;fill:none;fill-opacity:1;stroke:none;stroke-width:0;stroke-linecap:butt;stroke-linejoin:bevel;stroke-dasharray:none"
       id="rect17"
       width="34.16922"
       height="33.836407"
       x="32.779018"
       y="180.28461"
       ry="0"
       inkscape:export-filename="../phaser/public/assets/red-stone.png"
       inkscape:export-xdpi="164.01567"
       inkscape:export-ydpi="164.01567" /><g
       id="g17"
       transform="translate(0.99227139,0.45647029)"><path
         style="fill:#f00d12;fill-opacity:1;stroke:#1a1a1a;stroke-width:0;stroke-linecap:butt;stroke-linejoin:bevel;stroke-dasharray:none"
         d="m 45.613996,188.90497 0.675606,19.17783 6.954492,-0.93969 2.079731,-17.35359 z"
         id="path9"
         sodipodi:nodetypes="ccccc"
         inkscape:export-filename="../phaser/public/assets/red-stone.png"
         inkscape:export-xdpi="164.01567"
         inkscape:export-ydpi="164.01567" /><path
         style="fill:none;stroke:#1a1a1a;stroke-width:0;stroke-linecap:butt;stroke-linejoin:bevel;stroke-dasharray:none"
         d="m 46.965855,206.48862 6.079979,-0.74898 -3.921146,7.09331"
         id="path4" /><path
         style="fill:none;stroke:#1a1a1a;stroke-width:0;stroke-linecap:butt;stroke-linejoin:bevel;stroke-dasharray:none"
         d="m 56.614518,204.72631 -3.348394,0.88116 -0.132173,-14.45097 3.216221,-2.24694"
         id="path5" /><path
         style="fill:none;stroke:#1a1a1a;stroke-width:0;stroke-linecap:butt;stroke-linejoin:bevel;stroke-dasharray:none"
         d="M 46.833682,206.48862 41.502685,204.6382"
         id="path6" /><path
         style="fill:#870005;fill-opacity:1;stroke:#1a1a1a;stroke-width:0;stroke-linecap:butt;stroke-linejoin:bevel;stroke-dasharray:none"
         d="m 46.833682,206.46659 2.313035,6.21215 4.163465,-7.11533 z"
         id="path8" /><path
         style="fill:#ff191a;fill-opacity:1;stroke:#1a1a1a;stroke-width:0;stroke-linecap:butt;stroke-linejoin:bevel;stroke-dasharray:none"
         d="m 47.057485,191.87492 6.282792,-0.70166 -4.634649,-10.47232 z"
         id="path7"
         sodipodi:nodetypes="cccc" /><path
         style="fill:#920005;fill-opacity:1;stroke:#1a1a1a;stroke-width:0;stroke-linecap:butt;stroke-linejoin:bevel;stroke-dasharray:none"
         d="m 47.318319,191.57505 -6.124038,-2.9739 v 16.30139 l 5.683459,1.58608 z"
         id="path10" /><path
         style="fill:#e10810;fill-opacity:1;stroke:#1a1a1a;stroke-width:0;stroke-linecap:butt;stroke-linejoin:bevel;stroke-dasharray:none"
         d="m 41.194281,188.57912 7.528379,-7.91939 -1.536516,11.02546 z"
         id="path11"
         sodipodi:nodetypes="cccc" /><path
         style="fill:#ff2220;fill-opacity:1;stroke:#1a1a1a;stroke-width:0;stroke-linecap:butt;stroke-linejoin:bevel;stroke-dasharray:none"
         d="m 53.067863,191.1565 3.26028,-2.26898 -7.623225,-8.19999 z"
         id="path12"
         sodipodi:nodetypes="cccc" /><path
         style="fill:#790006;fill-opacity:1;stroke:#1a1a1a;stroke-width:0;stroke-linecap:butt;stroke-linejoin:bevel;stroke-dasharray:none"
         d="m 49.190775,212.5686 4.042305,-7.07128 3.240807,-0.87848 z"
         id="path14"
         sodipodi:nodetypes="cccc" /><path
         style="fill:#810007;fill-opacity:1;stroke:#1a1a1a;stroke-width:0;stroke-linecap:butt;stroke-linejoin:bevel;stroke-dasharray:none"
         d="m 41.128196,204.85848 5.683456,1.56405 2.313038,6.19013 z"
         id="path15" /><path
         style="opacity:0.22;fill:#ff0000;fill-opacity:1;stroke:none;stroke-width:0;stroke-linecap:butt;stroke-linejoin:bevel;stroke-dasharray:none"
         d="m 48.516292,194.12551 c -1.913815,2.56814 -1.545989,5.65969 0.522282,7.90642 0.224826,2.41214 -6.701436,-8.23573 -4.870959,2.21341 4.450594,1.8154 6.005938,-0.56956 7.669048,0.99492 1.053751,2.68235 -2.025973,6.96746 -4.235825,3.47443 -0.687951,-3.19027 -4.710052,-2.69335 -5.376339,-5.53419 -0.391417,-3.30822 0.153931,-6.68718 0.749901,-9.9323 1.128767,-3.41869 5.640151,-0.69669 2.735812,1.8266 -1.563668,1.86877 0.519854,3.66949 1.437777,1.04817 0.450275,-0.66631 0.756374,-1.45442 1.368303,-1.99746 z"
         id="path16-5"
         sodipodi:nodetypes="cccccccccc" /><path
         style="fill:#fc1315;fill-opacity:1;stroke:#1a1a1a;stroke-width:0;stroke-linecap:butt;stroke-linejoin:bevel;stroke-dasharray:none"
         d="m 56.308867,188.871 -3.152887,2.26347 0.0258,14.4602 3.278529,-0.93445 z"
         id="path13"
         sodipodi:nodetypes="ccccc" /><path
         style="opacity:0.22;fill:#800000;fill-opacity:1;stroke:none;stroke-width:0;stroke-linecap:butt;stroke-linejoin:bevel;stroke-dasharray:none"
         d="m 47.478058,205.52018 c -0.644743,-2.57637 0.994339,-3.83083 -1.413462,-6.16531 -2.225609,-1.64597 3.009413,-4.01615 3.743999,-5.70208 -0.425057,-1.71963 0.460799,-3.22742 -0.987237,-4.95144 0.586807,-1.96456 -0.603367,-2.78184 -2.547464,-2.67435 -0.49993,-1.15721 1.429541,-3.3394 2.007913,-1.50723 2.022951,1.10286 2.007881,4.04971 2.980727,5.95837 0.907198,2.50179 -0.718689,5.01214 0.113212,7.16658 1.701297,2.44819 4.481581,-3.35044 4.444527,0.44409 0.144229,3.38613 -4.633559,1.46422 -5.097479,4.85071 -2.134102,2.00706 1.299752,4.28879 -1.136287,5.85146 -0.733898,-1.14176 0.770608,-3.59222 -2.108449,-3.2708 z"
         id="path16"
         sodipodi:nodetypes="cccccccccccc" /><path
         style="opacity:0.33;fill:#ffdd55;fill-opacity:1;stroke:none;stroke-width:0;stroke-linecap:butt;stroke-linejoin:bevel;stroke-dasharray:none"
         d="m 48.53728,180.92443 c -1.450874,8.49521 -2.308963,17.20186 -1.613096,25.80306 0.364457,2.1852 2.816026,7.38947 1.106094,2.80317 -0.283347,-1.32773 -2.011472,-3.54259 0.491646,-3.15934 1.610697,-0.22179 3.221395,-0.44358 4.832092,-0.66537 0.02203,-4.9051 0.04406,-9.81021 0.06609,-14.71531 -1.180517,-2.39484 -3.892569,-9.22857 -4.065404,-8.65807 2.596463,5.21485 4.576214,10.72826 3.676895,16.60356 1.877136,3.86138 -1.737284,9.84359 -5.831667,6.33184 -0.842292,-3.82666 0.186908,-7.88664 0.110603,-11.81841 0.313366,-4.18394 0.936281,-8.34057 1.226747,-12.52513 z"
         id="path17" /></g><g
       id="g27"><path
         style="opacity:1;fill:#449b10;fill-opacity:1;stroke:#000000;stroke-width:0.264583;stroke-linecap:butt;stroke-linejoin:bevel;stroke-dasharray:none"
         d="m 121.06282,181.15807 -1.27729,1.43307 -1.33961,1.90037 -0.96576,1.15268 -2.49229,2.49229 -1.52652,2.39882 -0.59192,2.11845 -0.43615,0.37384 -0.77884,-1.80691 -1.37076,-0.84115 0.43616,2.42998 0.80999,1.37076 0.37384,1.24614 0.4673,3.61382 0.74769,2.52344 1.52653,2.1496 1.3396,1.05922 1.49537,0.71653 1.61999,1.55768 0.80999,0.74769 0.34269,1.43306 -0.4673,0.52961 -0.12462,1.21499 0.0311,0.56077 1.46422,-1.61999 0.37385,-0.96576 -0.0935,-1.40191 1.90036,-1.55768 2.6169,-1.68229 1.6823,-1.6823 0.4673,-2.27421 0.77884,-2.36767 1.83806,-1.55768 -0.18692,-2.55459 -0.90345,1.61998 -0.80999,0.15577 -0.71654,-3.80074 -0.84114,-1.52652 0.0935,-0.99692 0.9346,-1.12153 -0.37384,-1.93152 -0.99691,1.15268 -0.15577,1.77576 -0.18692,0.80999 -1.18384,-1.46422 -1.02807,-1.49537 -1.27729,-1.2773 -0.93461,-0.77884 -0.93461,-0.4673 -0.8723,0.0312 1.05922,-1.55769 z"
         id="path23" /><path
         style="opacity:1;fill:#021c03;fill-opacity:1;stroke:none;stroke-width:0.264583;stroke-linecap:butt;stroke-linejoin:bevel;stroke-dasharray:none"
         d="m 119.59861,185.55073 -2.46114,2.2119 -2.27421,2.6169 -1.40191,2.99075 -0.52961,1.68229 0.0623,2.58575 1.3396,3.42689 2.64806,2.77267 2.86612,1.77575 0.52961,0.62308 1.83806,-0.93461 1.46422,-1.05922 2.18076,-1.3396 1.37075,-3.30229 0.80999,-2.55459 -0.24922,-2.74151 -1.2773,-3.20882 -2.36767,-2.46114 -2.74152,-2.6169 -1.24614,-0.49845 z"
         id="path24" /><path
         style="opacity:1;fill:#08cb21;fill-opacity:1;stroke:none;stroke-width:0.264583;stroke-linecap:butt;stroke-linejoin:bevel;stroke-dasharray:none"
         d="m 114.278,196.28967 0.3084,-2.9739 1.6742,-2.73158 1.96057,-1.47594 2.02666,-1.74028 2.29101,1.16753 1.60811,1.1455 0.48464,0.96927 1.63013,7.1594 -4.1194,4.36172 -1.89449,1.16753 -2.09274,-0.74898 -4.05332,-4.9565 z"
         id="path21" /><ellipse
         style="opacity:0.757909;mix-blend-mode:normal;fill:#000000;fill-opacity:1;stroke:none;stroke-width:0.264583;stroke-linecap:butt;stroke-linejoin:bevel;stroke-dasharray:none;stroke-opacity:1;filter:url(#filter55)"
         id="path55"
         cx="135.79846"
         cy="187.51341"
         rx="4.5172696"
         ry="7.0095558"
         transform="matrix(0.50288065,0.30751192,-0.43213967,0.71035241,132.79802,20.865231)" /><path
         style="opacity:1;fill:#014d1f;fill-opacity:1;stroke:#00ff00;stroke-width:0.264583;stroke-linecap:butt;stroke-linejoin:bevel;stroke-dasharray:none"
         d="m 119.94129,204.71018 0.46731,-2.64805 1.7446,-2.11845 1.7446,-1.27729 1.49537,-0.90346 1.55768,-1.09037 0.37384,-0.59192 -0.21807,2.55459 -1.30845,2.89729 -1.33961,1.18383 -2.74151,1.37076 z"
         id="path18" /><path
         style="opacity:1;fill:#034e1f;fill-opacity:1;stroke:#00ff00;stroke-width:0.264583;stroke-linecap:butt;stroke-linejoin:bevel;stroke-dasharray:none"
         d="m 120.2258,202.85429 -1.63013,-1.10145 -2.26898,-2.40115 -1.71826,-2.51129 -0.8371,-0.99131 -0.11014,-0.63883 -0.0661,3.9652 1.10145,2.09275 1.91651,1.4539 2.29101,1.2116 1.03536,0.33043 z"
         id="path19" /><path
         style="opacity:1;fill:#02521e;fill-opacity:1;stroke:#00ff00;stroke-width:0.264583;stroke-linecap:butt;stroke-linejoin:bevel;stroke-dasharray:none"
         d="m 123.59623,198.60271 0.17623,-3.87709 0.46261,-2.1368 0.41855,-1.21159 0.19826,-1.52 1.23361,3.21622 0.59478,2.11478 0.0881,1.54202 -2.84173,1.80637 z"
         id="path20" /><path
         style="opacity:1;fill:#028523;fill-opacity:1;stroke:#00ff00;stroke-width:0.264583;stroke-linecap:butt;stroke-linejoin:bevel;stroke-dasharray:none"
         d="m 114.36611,196.55402 v -1.40985 l 0.35247,-1.69623 1.54202,-2.70955 -0.13217,4.1194 1.47593,2.84173 0.82236,3.81661 -0.11743,-0.0276 -1.96057,-2.13681 z"
         id="path22"
         sodipodi:nodetypes="cccccccccc" /><path
         style="opacity:1;fill:#ffff00;fill-opacity:1;stroke:none;stroke-width:0.152048;stroke-linecap:butt;stroke-linejoin:bevel;stroke-dasharray:none;filter:url(#filter27)"
         d="m 123.92801,193.62145 -0.84145,1.61129 -0.34015,1.14579 0.14323,1.1458 0.21483,1.1458 0.555,1.1995 0.21483,0.37597 0.71613,-1.23531 0.41177,-2.05886 0.12532,-1.1279 -0.25065,-1.59337 -0.5908,-0.82354 -0.26854,-0.0716 z"
         id="path25"
         transform="matrix(1.7791004,0,0,1.7791004,-100.78842,-153.43469)" /><ellipse
         style="opacity:0.44;mix-blend-mode:normal;fill:#ffffff;fill-opacity:1;stroke:none;stroke-width:0.149129;stroke-linecap:butt;stroke-linejoin:bevel;stroke-dasharray:none;filter:url(#filter26)"
         id="path26"
         cx="124.05357"
         cy="197.27298"
         rx="5.7945657"
         ry="6.409142"
         transform="matrix(0.35824811,0,0,0.35824811,75.242801,128.18943)" /><path
         style="opacity:1;fill:#008000;fill-opacity:0.329412;stroke:none;stroke-width:0.264583;stroke-linecap:butt;stroke-linejoin:bevel;stroke-dasharray:none"
         d="m 120.14567,187.84051 -3.32636,2.64347 -0.13218,4.00926 1.21159,2.53332 0.70492,3.3484 1.12348,1.58608 -0.37449,-6.65273 z"
         id="path38" /><path
         style="opacity:1;fill:#008000;fill-opacity:0.329412;stroke:none;stroke-width:0.264583;stroke-linecap:butt;stroke-linejoin:bevel;stroke-dasharray:none"
         d="m 120.56422,188.17094 -0.61681,5.30897 1.96057,-1.49797 1.9826,-2.20289 -2.46723,-1.60811 z"
         id="path39" /><path
         style="opacity:1;fill:#008000;fill-opacity:0.329412;stroke:none;stroke-width:0.264583;stroke-linecap:butt;stroke-linejoin:bevel;stroke-dasharray:none"
         d="m 119.94741,194.0086 -0.22029,1.27768 0.26435,6.45447 1.80637,-2.48927 0.46261,-6.87302 z"
         id="path40" /><path
         style="opacity:1;fill:#008000;fill-opacity:0.329412;stroke:none;stroke-width:0.264583;stroke-linecap:butt;stroke-linejoin:bevel;stroke-dasharray:none"
         d="m 122.26045,198.43641 0.88115,-0.37449 -0.1542,-2.95187 z"
         id="path41" /><path
         style="opacity:1;fill:#008000;fill-opacity:0.329412;stroke:none;stroke-width:0.264583;stroke-linecap:butt;stroke-linejoin:bevel;stroke-dasharray:none"
         d="m 122.52479,194.38309 0.13218,-1.89448 1.65216,-1.69623 -0.28637,1.71826 z"
         id="path42" /></g><g
       id="g42"
       transform="translate(1.1895611,-0.30840473)"><g
         id="g65"
         transform="translate(-0.37384299,0.43615015)"><path
           style="opacity:1;fill:#1effff;fill-opacity:1;stroke:none;stroke-width:0.264583;stroke-linecap:butt;stroke-linejoin:bevel;stroke-dasharray:none"
           d="m 51.418067,160.74185 -4.405781,-1.54203 -5.066649,-6.16809 2.59941,-13.12923 6.476499,-7.9304 5.507228,5.06665 3.260278,5.99186 1.409851,2.37912 0.08811,6.16809 -2.158833,4.27361 -1.542023,1.9826 -3.568682,1.89449 z"
           id="path27" /><path
           style="opacity:1;fill:#0090fa;fill-opacity:1;stroke:none;stroke-width:0.264583;stroke-linecap:butt;stroke-linejoin:bevel;stroke-dasharray:none"
           d="m 52.056905,135.36455 0.594781,3.59071 4.185494,3.41448 1.365792,1.29971 0.594781,0.19826 0.660866,-0.66087 -0.815071,-2.15883 -1.740283,-2.86376 z"
           id="path28" /><path
           style="opacity:1;fill:#0086f6;fill-opacity:1;stroke:none;stroke-width:0.264583;stroke-linecap:butt;stroke-linejoin:bevel;stroke-dasharray:none"
           d="m 52.255165,139.79236 1.211591,5.94781 3.348395,3.50259 2.511295,3.17217 0.39652,0.50666 1.299705,-0.96927 0.308406,-5.99187 -1.299707,-2.18086 -1.233617,1.25565 -2.004632,-2.04869 -2.863757,-2.18086 z"
           id="path29" /><path
           style="opacity:1;fill:#009bff;fill-opacity:1;stroke:none;stroke-width:0.264583;stroke-linecap:butt;stroke-linejoin:bevel;stroke-dasharray:none"
           d="m 53.136323,146.42306 -0.19826,1.14551 -0.61681,4.82433 -0.374491,3.1281 -1.189562,1.07942 1.497965,3.76694 3.039991,-2.26898 0.925214,-0.044 1.101444,-1.8284 1.608111,-1.76231 0.330433,-1.07942 -2.709555,-3.76695 -0.748983,0.11015 -0.638839,-1.63014 -1.431877,-1.74028 z"
           id="path30" /><path
           style="opacity:1;fill:#00b7ff;fill-opacity:1;stroke:none;stroke-width:0.264583;stroke-linecap:butt;stroke-linejoin:bevel;stroke-dasharray:none"
           d="m 52.497484,145.76219 -0.41855,-0.79304 -4.692157,2.6655 -2.048688,1.38782 0.132173,3.08405 2.291006,2.07072 1.960573,1.40985 1.101447,0.19826 0.859126,-1.8284 z"
           id="path31" /><path
           style="opacity:1;fill:#acfcff;fill-opacity:1;stroke:none;stroke-width:0.264583;stroke-linecap:butt;stroke-linejoin:bevel;stroke-dasharray:none"
           d="m 46.395475,143.5593 c 0,0 5.793605,-4.20752 5.793605,-4.31766 0,-0.11015 -0.704926,-3.43651 -0.704926,-3.43651 l -0.660866,-0.48464 -5.264909,5.59534 z"
           id="path32" /><path
           style="opacity:1;fill:#e5fdfc;fill-opacity:1;stroke:none;stroke-width:0.264583;stroke-linecap:butt;stroke-linejoin:bevel;stroke-dasharray:none"
           d="m 44.853452,140.40917 0.440579,0.24232 5.617371,-5.72752 0.06609,-2.31303 z"
           id="path33" /><path
           style="opacity:1;fill:#00f1fd;fill-opacity:1;stroke:none;stroke-width:0.264583;stroke-linecap:butt;stroke-linejoin:bevel;stroke-dasharray:none"
           d="m 51.37401,132.72108 0.638837,2.20289 4.141435,2.48927 z"
           id="path34" /><path
           style="opacity:1;fill:#00f7fd;fill-opacity:1;stroke:none;stroke-width:0.264583;stroke-linecap:butt;stroke-linejoin:bevel;stroke-dasharray:none"
           d="m 44.941569,148.78016 1.299705,-4.3397 -1.828401,-2.37912 -1.475936,6.01389 1.387822,0.70493 z"
           id="path35" /><path
           style="opacity:1;fill:#0085fc;fill-opacity:1;stroke:none;stroke-width:0.264583;stroke-linecap:butt;stroke-linejoin:bevel;stroke-dasharray:none"
           d="m 44.633163,149.68334 -0.176231,6.19012 -2.335065,-2.75361 1.321734,-2.33506 z"
           id="path36" /><path
           style="opacity:1;fill:#00e4ff;fill-opacity:1;stroke:none;stroke-width:0.264583;stroke-linecap:butt;stroke-linejoin:bevel;stroke-dasharray:none"
           d="m 45.007654,152.45898 -0.572752,3.39245 2.24695,2.92985 3.700857,1.01333 1.255647,0.44058 -1.762313,-3.85506 -2.885787,-2.37912 z"
           id="path37" /></g></g><rect
       style="opacity:0;fill:#ffffff;fill-opacity:1;stroke:none;stroke-width:0;stroke-linecap:butt;stroke-linejoin:bevel;stroke-dasharray:none"
       id="rect17-4-6"
       width="30.787891"
       height="30.488012"
       x="96.303642"
       y="128.88969"
       ry="0"
       inkscape:export-filename="../phaser/public/assets/purple-stone.png"
       inkscape:export-xdpi="164.01567"
       inkscape:export-ydpi="164.01567" /><g
       id="g55"
       transform="matrix(1.0942941,0,0,1.0942941,-52.135352,2.9072928)"><path
         style="opacity:1;fill:#73c15e;fill-opacity:1;stroke:none;stroke-width:0.264583;stroke-linecap:butt;stroke-linejoin:bevel;stroke-dasharray:none;stroke-opacity:1"
         d="m 143.60646,125.63086 c -2.02814,-1.06627 -0.23463,-2.93204 0.85147,-3.80679 1.21303,-1.6665 -2.16927,-2.56868 -0.40725,-3.68742 1.37441,-1.69794 -3.15507,1.24546 -0.81442,1.59081 2.16096,1.48666 -0.79531,3.19771 -1.5919,4.43722 -0.0186,1.33193 1.24809,2.80395 1.91381,3.58362 1.33551,-0.27888 1.5434,-1.88824 0.0483,-2.11744 z"
         id="path50" /><path
         style="opacity:1;fill:#73c15e;fill-opacity:1;stroke:none;stroke-width:0.264583;stroke-linecap:butt;stroke-linejoin:bevel;stroke-dasharray:none;stroke-opacity:1"
         d="m 148.76122,120.82856 c 1.11476,-0.86945 -0.82946,-2.69381 0.90467,-3.51444 0.63791,-0.64119 3.0342,-1.75378 1.33977,-0.51841 -1.9533,0.95321 -1.54554,3.24843 0.57089,3.58069 2.24919,0.81732 0.60185,3.66188 -1.30387,2.44538 -0.71691,-0.50349 -1.13801,-1.21321 -1.51146,-1.99322 z"
         id="path51" /><path
         style="opacity:1;fill:#73c15e;fill-opacity:1;stroke:none;stroke-width:0.264583;stroke-linecap:butt;stroke-linejoin:bevel;stroke-dasharray:none;stroke-opacity:1"
         d="m 156.00873,129.15549 c 1.45852,-0.87172 1.29014,-2.96059 0.0684,-3.96094 -1.24242,-1.39172 -0.68225,-3.27178 0.97472,-3.892 0.96773,-1.07634 -2.03536,-2.77208 -0.0901,-1.53154 2.14023,1.56588 -1.40729,2.44505 -0.75545,4.20145 0.38142,1.68862 3.03623,2.58154 1.51764,4.56325 -0.34252,1.02964 -2.34199,3.51401 -3.08545,1.80866 -0.19162,-0.87846 0.5662,-1.3991 1.37015,-1.18888 z"
         id="path52" /><path
         style="opacity:1;fill:#73c15e;fill-opacity:1;stroke:none;stroke-width:0.264583;stroke-linecap:butt;stroke-linejoin:bevel;stroke-dasharray:none;stroke-opacity:1"
         d="m 155.34787,135.12532 c 1.19113,-0.52154 2.80458,-1.31442 2.38337,-2.84566 1.39735,1.38771 0.0297,2.96699 -1.3783,3.57239 -0.6815,1.01958 -3.24251,0.3951 -1.599,-0.59602 l 0.2688,-0.079 0.3251,-0.0517 z"
         id="path53" /><path
         style="opacity:1;fill:#73c15e;fill-opacity:1;stroke:none;stroke-width:0.264583;stroke-linecap:butt;stroke-linejoin:bevel;stroke-dasharray:none;stroke-opacity:1"
         d="m 142.26269,132.68012 c -0.32055,-0.46663 -0.48774,-1.08382 -0.90525,-1.45529 -0.35613,-0.18426 -0.70451,-0.37248 -0.79882,-0.79764 -0.21202,-0.40076 -0.38659,-0.81953 -0.43771,-1.27289 -0.10617,-0.39403 0.13795,-0.94741 0.61284,-0.83178 0.23682,0.002 0.65596,-0.15628 0.47562,0.21062 -0.0827,0.2667 0.10102,-0.0675 0.16813,-0.13874 0.35289,-0.27761 -0.35831,-0.50735 -0.53825,-0.58551 -0.36146,0.12524 -0.96454,0.21105 -0.98133,0.67476 -0.0996,0.4424 -0.20936,0.88644 -0.16175,1.34303 -0.009,0.38376 0.0587,0.77154 0.21536,1.12188 0.34588,0.3205 0.79827,0.57023 1.00715,1.01967 0.18981,0.5102 0.23239,1.06982 0.39752,1.59312 0.12812,0.53341 0.37331,1.02619 0.62707,1.50887 0.33454,0.1751 0.78043,0.25492 1.0975,0.0174 0.36577,-0.22895 0.75584,-0.49856 0.51066,-0.97854 -0.079,-0.45875 -0.11039,-0.94427 -0.47658,-1.27616 -0.24391,-0.20533 -0.52992,0.0743 -0.81216,-0.15285 z"
         id="path49" /><path
         style="opacity:1;fill:#43086b;fill-opacity:1;stroke:none;stroke-width:0.264583;stroke-linecap:butt;stroke-linejoin:bevel;stroke-dasharray:none"
         d="m 149.62539,140.71221 c -1.32989,-0.0835 -2.82915,0.15036 -3.83465,-0.95442 -1.48663,-0.71061 -2.3006,-2.12175 -2.9198,-3.57453 -1.1784,-2.13091 -0.74235,-4.61161 -0.90933,-6.93556 1.28081,-2.58966 2.50602,-5.22246 4.24312,-7.54853 1.17991,-1.14736 3.3621,-0.8974 4.80335,-0.37246 1.47357,1.01786 2.89862,2.15497 3.5575,3.88653 1.35886,1.99988 1.84541,4.4575 1.83517,6.84115 -0.14794,2.15599 -0.39607,4.53745 -1.94388,6.1899 -1.49459,0.85023 -2.75458,2.64084 -4.61509,2.44289 z"
         id="path43" /><ellipse
         style="opacity:0.550206;mix-blend-mode:normal;fill:#000000;fill-opacity:1;stroke:none;stroke-width:0.264583;stroke-linecap:butt;stroke-linejoin:bevel;stroke-dasharray:none;stroke-opacity:1;filter:url(#filter54-2)"
         id="path54-1"
         cx="99.086029"
         cy="152.52815"
         rx="7.1814241"
         ry="6.6967883"
         transform="matrix(0.28547437,0.1905933,-0.33598138,0.56566644,174.96499,30.337238)" /><path
         style="opacity:1;fill:none;fill-opacity:1;stroke:#74ff4f;stroke-width:0.264583;stroke-linecap:butt;stroke-linejoin:bevel;stroke-dasharray:none;stroke-opacity:1;filter:url(#filter44)"
         d="m 149.49672,121.19744 -1.41228,0.74017 -1.21348,1.75406 -1.2773,2.39882 -0.34268,1.40191 -1.33961,1.61999 -0.77884,1.52653 -0.34269,0.99691 -0.77884,0.0623 0.71654,0.0935 0.37384,1.09037 0.65422,1.18384 0.99692,0.74769 0.24923,0.37384 0.71653,1.83806 0.8723,1.24614 0.90345,0.65423 0.84115,1.27729 0.96576,-1.15268 0.99691,-1.52652 1.33962,-0.49846 0.8723,-0.99692 0.62307,-2.64805 -0.28038,-0.65422 -2.05614,-1.7446 -1.80691,-0.0312 -1.52653,1.7446 -0.84115,1.77576 -1.71344,0.74768 -1.33961,-1.83806 -0.68538,-1.93152 1.24615,-3.23997 1.05922,-0.62308 0.80999,0.87231 0.62307,0.99691 0.59192,1.18384 1.40191,0.28038 h 0.96576 l 0.81,-0.24923 0.74769,-1.80691 0.8723,-1.15268 0.65423,-0.8723 0.56076,-0.74769 0.74769,-1.27729 -1.65114,2.27421 -1.24614,1.80691 -0.43616,1.96267 1.61999,1.65114 0.84115,0.71653 1.02807,-0.4673 0.96576,-0.74769 0.77884,-1.46421"
         id="path44"
         sodipodi:nodetypes="cccccccccccccccccccccccccccccccccccccccccccccccccccc" /><path
         style="fill:none;fill-opacity:1;stroke:#74ff4f;stroke-width:0.264583;stroke-linecap:butt;stroke-linejoin:bevel;stroke-dasharray:none;stroke-opacity:1;filter:url(#filter44-1)"
         d="m 150.09921,121.42365 -2.01849,0.44459 -0.9377,2.07167 -1.2773,2.39882 -0.34268,1.40191 -1.33961,1.61999 -0.77884,1.52653 -0.34269,0.99691 -0.77884,0.0623 0.71654,0.0935 0.37384,1.09037 0.65422,1.18384 0.99692,0.74769 0.24923,0.37384 0.71653,1.83806 0.8723,1.24614 0.90345,0.65423 0.84115,1.27729 0.96576,-1.15268 0.99691,-1.52652 1.33961,-0.49846 0.8723,-0.99692 0.62307,-2.64805 -0.28038,-0.65422 -2.05614,-1.7446 -1.8069,-0.0312 -1.52653,1.7446 -0.84115,1.77576 -1.71344,0.74768 -1.33961,-1.83806 -0.68538,-1.93152 1.24615,-3.23997 1.05922,-0.62308 0.80999,0.87231 0.62307,0.99691 0.59192,1.18384 1.40191,0.28038 h 0.96576 l 0.81,-0.24923 0.74768,-1.80691 0.8723,-1.15268 0.65423,-0.8723 0.56076,-0.74769 0.74769,-1.27729 -1.65114,2.27421 -1.24614,1.80691 -0.43615,1.96267 1.61998,1.65114 0.84115,0.71653 1.02807,-0.4673 0.96576,-0.74769 0.77884,-1.46421"
         id="path44-7"
         sodipodi:nodetypes="cccccccccccccccccccccccccccccccccccccccccccccccccccc" /><path
         style="opacity:0.22;fill:#000000;fill-opacity:1;stroke:none;stroke-width:0.264583;stroke-linecap:butt;stroke-linejoin:bevel;stroke-dasharray:none;stroke-opacity:1"
         d="m 150.01687,129.57404 h -1.6742 l -1.18956,-1.76231 -0.13217,-1.10145 1.40985,-2.15883 2.11478,-1.93854 2.42318,0.92521 0.26434,0.8371 -2.64347,3.34839 -0.48463,1.23362 z"
         id="path45" /><path
         style="opacity:0.22;fill:#000000;fill-opacity:1;stroke:none;stroke-width:0.264583;stroke-linecap:butt;stroke-linejoin:bevel;stroke-dasharray:none;stroke-opacity:1"
         d="m 149.92876,132.4378 -0.96928,1.54202 -0.74898,0.39653 -1.45391,1.10144 0.57275,1.85043 0.66087,1.05739 1.36579,-1.54203 1.76232,-1.01333 0.79304,-1.18956 -0.70493,-1.76231 z"
         id="path46" /><path
         style="opacity:0.22;fill:#000000;fill-opacity:1;stroke:none;stroke-width:0.264583;stroke-linecap:butt;stroke-linejoin:bevel;stroke-dasharray:none;stroke-opacity:1"
         d="m 153.67367,131.6007 -1.36579,-1.32173 1.05739,-1.80637 0.52869,-1.01333 0.74898,-1.45391 0.44058,2.29101 0.30841,1.76231 -0.96928,0.92521 z"
         id="path47" /><path
         style="opacity:0.22;fill:#000000;fill-opacity:1;stroke:none;stroke-width:0.264583;stroke-linecap:butt;stroke-linejoin:bevel;stroke-dasharray:none;stroke-opacity:1"
         d="m 153.89396,133.80359 -0.22029,2.68753 -0.74898,1.27768 0.79304,0.74898 1.27768,-1.89448 0.52869,-2.07072 0.30841,-1.80638 z"
         id="path48" /><ellipse
         style="opacity:0.440165;fill:#ff7eff;fill-opacity:1;stroke:none;stroke-width:0.264583;stroke-linecap:butt;stroke-linejoin:bevel;stroke-dasharray:none;stroke-opacity:1;filter:url(#filter54)"
         id="path54"
         cx="99.086029"
         cy="152.52815"
         rx="7.1814241"
         ry="6.6967883"
         transform="matrix(0.34817008,0,0,0.6507166,114.28195,26.66463)" /><ellipse
         style="opacity:0.440165;fill:#76e683;fill-opacity:1;stroke:none;stroke-width:0.264583;stroke-linecap:butt;stroke-linejoin:bevel;stroke-dasharray:none;stroke-opacity:1;filter:url(#filter54-4)"
         id="path54-0"
         cx="99.086029"
         cy="152.52815"
         rx="7.1814241"
         ry="6.6967883"
         transform="matrix(0.21280702,0.06429587,-0.12016652,0.39772821,144.42736,57.801506)"
         inkscape:transform-center-x="-1.3217346"
         inkscape:transform-center-y="0.17623127" /></g><g
       id="g64"
       transform="matrix(1.124105,0,0,1.124105,-12.649514,46.882091)"><path
         style="opacity:1;fill:#fff200;fill-opacity:1;stroke:none;stroke-width:0.264583;stroke-linecap:butt;stroke-linejoin:bevel;stroke-dasharray:none;stroke-opacity:1"
         d="m 145.42492,79.628557 0.24923,11.277594 7.10301,7.414554 1.24615,0.06231 7.91301,-7.913011 -0.31154,-10.592217 -7.60147,-7.601474 -1.61999,0.124613 z"
         id="path56" /><path
         style="opacity:1;fill:#ffffad;fill-opacity:1;stroke:none;stroke-width:0.264583;stroke-linecap:butt;stroke-linejoin:bevel;stroke-dasharray:none;stroke-opacity:1"
         d="m 145.24516,80.628938 3.08405,1.497965 4.49389,-4.141435 0.30841,-4.537953 -0.79304,0.08811 z"
         id="path57" /><path
         style="opacity:1;fill:#ff8e00;fill-opacity:1;stroke:none;stroke-width:0.264583;stroke-linecap:butt;stroke-linejoin:bevel;stroke-dasharray:none;stroke-opacity:1"
         d="m 153.68062,78.320105 4.8288,4.361502 2.86613,-1.900369 -6.9784,-7.13417 -0.65422,-0.03115 z"
         id="path58" /><path
         style="opacity:1;fill:#ffb400;fill-opacity:1;stroke:none;stroke-width:0.264583;stroke-linecap:butt;stroke-linejoin:bevel;stroke-dasharray:none;stroke-opacity:1"
         d="m 149.08888,81.558581 0.13217,7.489827 4.00926,4.229553 4.31767,-3.921146 0.13217,-6.740848 -4.62607,-4.185491 z"
         id="path59" /><path
         style="opacity:1;fill:#cf5b00;fill-opacity:1;stroke:none;stroke-width:0.264583;stroke-linecap:butt;stroke-linejoin:bevel;stroke-dasharray:none;stroke-opacity:1"
         d="m 158.50943,89.971545 0.0623,-6.542254 2.49229,-1.83806 -0.0311,9.75107 z"
         id="path60" /><path
         style="opacity:1;fill:#b34300;fill-opacity:1;stroke:none;stroke-width:0.264583;stroke-linecap:butt;stroke-linejoin:bevel;stroke-dasharray:none;stroke-opacity:1"
         d="m 153.36909,97.978016 -0.0156,-3.78516 4.25246,-4.143428 2.53902,1.526526 -6.3086,6.433214 z"
         id="path61" /><path
         style="opacity:1;fill:#c55100;fill-opacity:1;stroke:none;stroke-width:0.264583;stroke-linecap:butt;stroke-linejoin:bevel;stroke-dasharray:none;stroke-opacity:1"
         d="m 146.13009,90.621318 6.10201,6.344324 0.52869,0.08812 v -3.811003 l -4.1194,-4.075347 -0.63884,-0.06608 z"
         id="path62" /><path
         style="opacity:1;fill:#ffb500;fill-opacity:1;stroke:none;stroke-width:0.264583;stroke-linecap:butt;stroke-linejoin:bevel;stroke-dasharray:none;stroke-opacity:1"
         d="m 145.9385,90.333398 -0.23315,-9.334086 2.76577,1.348729 0.0311,6.105722 -0.47006,0.471352 z"
         id="path63"
         sodipodi:nodetypes="cccccc" /><path
         sodipodi:type="star"
         style="opacity:1;fill:#ffff00;fill-opacity:1;stroke:none;stroke-width:0.264583;stroke-linecap:butt;stroke-linejoin:bevel;stroke-dasharray:none;stroke-opacity:1;filter:url(#filter64)"
         id="path64"
         inkscape:flatsided="false"
         sodipodi:sides="11"
         sodipodi:cx="150.85397"
         sodipodi:cy="83.18116"
         sodipodi:r1="6.4535303"
         sodipodi:r2="3.2267654"
         sodipodi:arg1="0.61072596"
         sodipodi:arg2="0.8963253"
         inkscape:rounded="0"
         inkscape:randomized="0"
         d="m 156.14091,86.882017 -3.27187,-1.180633 0.43175,3.451469 -2.11417,-2.762119 -1.50279,3.136985 -0.28525,-3.466653 -2.9602,1.826532 1.63425,-3.07055 -3.47779,-0.06383 3.03489,-1.699567 -2.89119,-1.933931 3.47196,0.211015 -1.38665,-3.190021 2.80671,2.054602 0.55813,-3.4333 1.25036,3.245867 2.3257,-2.586531 -0.70298,3.406592 3.35489,-0.918558 -2.43312,2.485749 3.31892,1.041052 -3.39077,0.775698 z"
         inkscape:transform-center-x="-0.094680258"
         inkscape:transform-center-y="-0.03629373"
         transform="translate(2.6434691,2.0266596)" /><path
         sodipodi:type="star"
         style="fill:#ffffff;fill-opacity:1;stroke:none;stroke-width:0.264583;stroke-linecap:butt;stroke-linejoin:bevel;stroke-dasharray:none;stroke-opacity:1;filter:url(#filter64-0)"
         id="path64-3"
         inkscape:flatsided="false"
         sodipodi:sides="11"
         sodipodi:cx="150.85397"
         sodipodi:cy="83.18116"
         sodipodi:r1="6.4535303"
         sodipodi:r2="3.2267654"
         sodipodi:arg1="0.61072596"
         sodipodi:arg2="0.8963253"
         inkscape:rounded="0"
         inkscape:randomized="0"
         d="m 156.14091,86.882017 -3.27187,-1.180633 0.43175,3.451469 -2.11417,-2.762119 -1.50279,3.136985 -0.28525,-3.466653 -2.9602,1.826532 1.63425,-3.07055 -3.47779,-0.06383 3.03489,-1.699567 -2.89119,-1.933931 3.47196,0.211015 -1.38665,-3.190021 2.80671,2.054602 0.55813,-3.4333 1.25036,3.245867 2.3257,-2.586531 -0.70298,3.406592 3.35489,-0.918558 -2.43312,2.485749 3.31892,1.041052 -3.39077,0.775698 z"
         inkscape:transform-center-x="-0.051154503"
         inkscape:transform-center-y="-0.019608872"
         transform="matrix(0.54028704,0,0,0.54028704,71.827053,40.592679)" /></g></g></svg>
