<?xml version="1.0" encoding="UTF-8" standalone="no"?>
<!-- Created with Inkscape (http://www.inkscape.org/) -->

<svg
   width="210mm"
   height="297mm"
   viewBox="0 0 210 297"
   version="1.1"
   id="svg1"
   inkscape:version="1.3.2 (091e20e, 2023-11-25)"
   sodipodi:docname="_template_male.svg"
   xmlns:inkscape="http://www.inkscape.org/namespaces/inkscape"
   xmlns:sodipodi="http://sodipodi.sourceforge.net/DTD/sodipodi-0.dtd"
   xmlns="http://www.w3.org/2000/svg"
   xmlns:svg="http://www.w3.org/2000/svg">
  <sodipodi:namedview
     id="namedview1"
     pagecolor="#ffffff"
     bordercolor="#000000"
     borderopacity="0.25"
     inkscape:showpageshadow="2"
     inkscape:pageopacity="0.0"
     inkscape:pagecheckerboard="0"
     inkscape:deskcolor="#d1d1d1"
     inkscape:document-units="mm"
     inkscape:zoom="0.8409652"
     inkscape:cx="448.88897"
     inkscape:cy="411.43201"
     inkscape:window-width="2560"
     inkscape:window-height="1027"
     inkscape:window-x="0"
     inkscape:window-y="25"
     inkscape:window-maximized="1"
     inkscape:current-layer="layer1"
     showguides="true">
    <sodipodi:guide
       position="114.8358,183.10806"
       orientation="0,-1"
       id="guide1"
       inkscape:locked="false" />
    <sodipodi:guide
       position="117.03813,203.87289"
       orientation="0,-1"
       id="guide2"
       inkscape:locked="false" />
    <sodipodi:guide
       position="101.3072,197.4232"
       orientation="0,-1"
       id="guide3"
       inkscape:locked="false" />
    <sodipodi:guide
       position="119.24046,47.822035"
       orientation="0,-1"
       id="guide4"
       inkscape:locked="false" />
    <sodipodi:guide
       position="127.26324,263.33581"
       orientation="1,0"
       id="guide5"
       inkscape:locked="false" />
    <sodipodi:guide
       position="96.430612,212.83952"
       orientation="1,0"
       id="guide7"
       inkscape:locked="false" />
    <sodipodi:guide
       position="83.05932,204.50212"
       orientation="1,0"
       id="guide8"
       inkscape:locked="false" />
  </sodipodi:namedview>
  <defs
     id="defs1" />
  <g
     inkscape:label="Layer 1"
     inkscape:groupmode="layer"
     id="layer1">
    <ellipse
       style="opacity:0.33;fill:#000000;fill-opacity:1;stroke:#000000;stroke-width:1.85225;stroke-linecap:round;stroke-dasharray:none;paint-order:normal"
       id="path445"
       cx="106.03278"
       cy="253.7019"
       rx="87.315117"
       ry="16.719917" />
    <g
       id="g1"
       transform="matrix(0.63490054,0,0,0.63490054,23.947107,36.941812)"
       style="opacity:1">
      <path
         style="fill:#ecaf8a;fill-opacity:1;stroke:#000000;stroke-width:6;stroke-linecap:round;stroke-dasharray:none;paint-order:stroke fill markers"
         d="m 96.315572,126.80676 c -7.12859,2.0451 -9.45358,3.8921 -13.20379,9.4132 -2.94646,19.7088 -6.81389,26.623 -6.44394,40.3064 -1.31461,8.5767 10.4055,9.1586 13.96193,3.601 5.1893,-22.7283 1.17449,-14.6874 7.83381,-38.2847 0.99405,-4.8184 1.688858,-11.9665 -2.14801,-15.0359 z"
         id="path271"
         sodipodi:nodetypes="cccccc" />
      <path
         style="fill:#ecaf8a;fill-opacity:1;stroke:#000000;stroke-width:6;stroke-linecap:round;stroke-dasharray:none;paint-order:stroke fill markers"
         d="m 74.726552,182.20466 c -3.85494,18.8613 -4.54717,26.3791 -5.55951,36.6422 1.76311,7.4201 9.38064,11.705 15.2886,-1.6426 1.89394,-8.774 4.97949,-29.0433 3.15881,-34.81 -5.11424,-2.8768 -8.3711,-2.1365 -12.8879,-0.1896 z"
         id="path272"
         sodipodi:nodetypes="ccccc" />
      <path
         style="fill:#ecaf8a;fill-opacity:1;stroke:#000000;stroke-width:6;stroke-linecap:round;stroke-dasharray:none;paint-order:stroke fill markers"
         d="m 68.551832,218.05716 c -1.22817,3.8098 -3.00156,7.5562 -2.82713,11.6618 -0.31475,3.129 0.61894,6.2515 2.82915,8.5315 2.07684,1.9938 6.55467,2.8944 9.35557,2.624 2.23456,-1.381 5.11451,-0.4843 6.50454,-2.2621 1.21874,-2.2397 2.09327,-2.6276 3.59117,-4.4882 1.28542,-2.8583 -0.83015,-5.5046 -1.49114,-8.1861 -0.0544,-3.3579 -0.94274,-6.653 -1.09758,-10.0198 -1.44925,-2.1889 -4.92294,-1.4052 -7.30048,-1.7137 -4.99502,0.1679 -9.11858,2.1826 -9.5641,3.8526 z"
         id="path273"
         sodipodi:nodetypes="cccccccccc" />
      <path
         style="fill:#ecaf8a;fill-opacity:1;stroke:#000000;stroke-width:6;stroke-linecap:round;stroke-dasharray:none;paint-order:stroke fill markers"
         d="m 73.134592,225.74916 c -1.58904,13.2277 12.5991,13.2326 7.90697,1.2062"
         id="path274"
         sodipodi:nodetypes="cc" />
      <path
         style="fill:#ecaf8a;fill-opacity:1;stroke:#000000;stroke-width:6;stroke-linecap:round;stroke-dasharray:none;paint-order:stroke fill markers"
         d="m 162.39978,317.69856 c 2.1101,2.8572 6.74237,29.2729 1.36388,33.6723 -7.5122,11.2653 -29.31519,9.7632 -33.70066,-0.8631 1.96206,-13.4256 5.4764,-14.5757 9.54753,-29.7995 5.53003,-0.8323 17.22266,-3.2833 22.78925,-3.0097 z"
         id="path277"
         sodipodi:nodetypes="ccccc" />
      <path
         style="fill:#ecaf8a;fill-opacity:1;stroke:#000000;stroke-width:6;stroke-linecap:round;stroke-dasharray:none;paint-order:stroke fill markers"
         d="m 114.77989,311.19536 c 1.98365,6.8711 2.41792,14.1562 3.58547,21.146 -0.52452,2.705 -30.062058,21.0076 -51.934938,10.7932 -5.5289,-2.8651 -2.56128,-9.6179 -0.20013,-13.6429 4.0321,-6.7178 17.78893,-15.7957 27.79635,-17.9553 6.797158,-1.7163 13.896368,-1.7422 20.753248,-0.341 z"
         id="path278"
         sodipodi:nodetypes="cccccc" />
      <path
         style="fill:#ecaf8a;fill-opacity:1;stroke:#000000;stroke-width:6;stroke-linecap:round;stroke-dasharray:none;paint-order:stroke fill markers"
         d="m 157.29738,273.60556 c 4.04514,12.8899 2.24147,33.6045 3.05454,44.7889 -1.15984,8.9895 -15.27649,16.776 -20.34466,0.344 -2.24321,-6.3928 -2.84552,-25.3648 -5.93243,-35.8902 -1.02488,-19.4241 18.57669,-21.8768 23.22255,-9.2427 z"
         id="path276"
         sodipodi:nodetypes="ccccc" />
      <path
         style="fill:#ecaf8a;fill-opacity:1;stroke:#000000;stroke-width:6;stroke-linecap:round;stroke-dasharray:none;paint-order:stroke fill markers"
         d="m 92.668272,313.84876 c -0.46898,-10.1216 -1.62631,-18.9628 -1.02626,-30.7628 -0.59186,-15.4578 26.453318,-12.1147 25.344878,0.4693 -1.76453,10.1537 -2.78687,22.6738 -3.63974,31.4656 -8.41119,7.6995 -20.778548,6.3708 -20.678878,-1.1721 z"
         id="path279"
         sodipodi:nodetypes="ccccc" />
      <path
         style="fill:#ecaf8a;fill-opacity:1;stroke:#000000;stroke-width:6;stroke-linecap:round;stroke-dasharray:none;paint-order:stroke fill markers"
         d="m 153.91434,218.15596 c 0.45821,20.6137 2.04251,29.9669 2.93305,54.2468 0.69727,9.2712 -20.36517,16.9693 -23.82696,6.6443 -4.53672,-15.8691 -12.99057,-25.8569 -13.52276,-54.1876 -1.02043,-11.7024 27.46165,-20.6026 34.41667,-6.7035 z"
         id="path275"
         sodipodi:nodetypes="ccccc" />
      <path
         style="fill:#ecaf8a;fill-opacity:1;stroke:#000000;stroke-width:6;stroke-linecap:round;stroke-dasharray:none;paint-order:stroke fill markers"
         d="m 91.515322,283.79856 c -2.6647,-13.5288 -7.02744,-48.3154 -5.90983,-55.8886 -1.18015,-21.1117 26.988198,-21.0013 29.379948,0.7368 0.48003,15.703 1.34422,31.4929 0.54911,47.172 0.099,9.0865 -23.639388,11.8947 -24.019228,7.9798 z"
         id="path280"
         sodipodi:nodetypes="ccccc" />
      <path
         style="fill:#ecaf8a;fill-opacity:1;stroke:#000000;stroke-width:6;stroke-linecap:round;stroke-dasharray:none;paint-order:stroke fill markers"
         d="m 159.4291,128.30026 c -7.42251,-3.2048 -14.5555,-7.3186 -23.31345,-8.4596 -13.3638,1.4439 -26.61069,0.9244 -38.600568,6.4439 -4.69621,9.2306 -5.92378,17.3478 -7.77066,27.3553 -0.97001,24.7609 -2.53067,49.2729 -4.86455,73.916 25.211338,9.0028 47.644588,5.0256 68.672378,0.3158 -0.23969,-23.4221 -0.84342,-46.8291 -1.01082,-70.2518 z"
         id="path262"
         sodipodi:nodetypes="cccccccc" />
      <path
         style="fill:#ecaf8a;fill-opacity:1;stroke:#000000;stroke-width:6;stroke-linecap:round;stroke-dasharray:none;paint-order:stroke fill markers"
         d="m 150.79025,125.20506 c 2.15,-1.6845 15.90057,5.5232 18.59519,12.6918 3.45133,14.082 5.25895,23.9954 6.55322,37.1181 -0.0164,8.2592 -13.82352,11.5408 -20.11126,5.6832 -1.55352,-7.2014 -0.63283,-6.5902 -2.32303,-11.6851 -2.81742,-16.7942 -14.37857,-34.7307 -2.71412,-43.808 z"
         id="path263"
         sodipodi:nodetypes="cccccc" />
      <path
         style="fill:#ecaf8a;fill-opacity:1;stroke:#000000;stroke-width:6;stroke-linecap:round;stroke-dasharray:none;paint-order:stroke fill markers"
         d="m 175.83078,181.84936 c 0.59203,11.8583 -0.27285,23.7066 -0.53608,35.5591 -0.13054,6.9698 -16.42504,7.6378 -17.28682,-3.5928 -0.37782,-10.2035 -2.65061,-20.2792 -1.20749,-30.4474 4.28738,-13.5312 18.83498,-11.1201 19.03039,-1.5189 z"
         id="path264"
         sodipodi:nodetypes="ccccc" />
      <path
         style="fill:#ecaf8a;fill-opacity:1;stroke:#000000;stroke-width:6;stroke-linecap:round;stroke-dasharray:none;paint-order:stroke fill markers"
         d="m 174.83264,219.91276 c 1.22038,5.9704 2.38224,12.42 0.27207,18.3192 -1.03934,3.0146 -4.15292,4.1012 -6.91458,4.9354 -2.60137,0.399 -4.50952,3.0003 -7.30431,2.3621 -2.45663,-1.4345 -5.46304,-0.1266 -7.91835,-1.6005 -2.62935,-2.0759 -0.93575,-6.0691 -4.10962,-7.8322 -0.85493,-4.5938 -0.14531,-10.1004 3.6595,-13.2933 2.3658,-2.4324 4.8519,-4.736 7.57346,-6.7769 3.97248,-0.8826 8.36238,-0.6021 12.0625,1.1427 1.19959,0.6076 1.88364,1.7252 2.67933,2.7435 z"
         id="path265" />
      <path
         style="fill:#ecaf8a;fill-opacity:1;stroke:#000000;stroke-width:3;stroke-linecap:round;stroke-dasharray:none;paint-order:normal"
         d="m 108.71498,126.21566 -0.12634,-13.646 27.92381,-6.444 1.51622,15.0359"
         id="path261" />
      <path
         style="fill:none;fill-opacity:1;stroke:#000000;stroke-width:3;stroke-linecap:round;stroke-dasharray:none;paint-order:normal"
         d="m 167.19523,244.22696 c 1.93604,-1.6451 2.16695,-5.9371 2.21263,-7.1863"
         id="path267"
         sodipodi:nodetypes="cc" />
      <path
         style="fill:none;fill-opacity:1;stroke:#000000;stroke-width:3;stroke-linecap:round;stroke-dasharray:none;paint-order:normal"
         d="m 158.30492,245.06306 c 1.88866,-0.9407 4.43643,-4.958 4.58072,-7.1067"
         id="path268"
         sodipodi:nodetypes="cc" />
      <path
         style="fill:none;fill-opacity:1;stroke:#000000;stroke-width:3;stroke-linecap:round;stroke-dasharray:none;paint-order:normal"
         d="m 149.57559,238.03596 c 0.62298,-1.7475 4.49085,-5.1308 6.50712,-5.3075"
         id="path269"
         sodipodi:nodetypes="cc" />
      <path
         style="fill:none;fill-opacity:1;stroke:#000000;stroke-width:3;stroke-linecap:round;stroke-dasharray:none;paint-order:normal"
         d="m 155.98794,230.02836 c 1.12556,1.7693 0.82749,3.9704 0.63174,5.9386"
         id="path270"
         sodipodi:nodetypes="cc" />
      <path
         style="fill:#ecaf8a;fill-opacity:1;stroke:#000000;stroke-width:6;stroke-linecap:square;stroke-dasharray:none;paint-order:stroke fill markers"
         d="m 158.32386,61.874161 c 0.50578,-10.2833 -6.88385,-24.1392 -15.48771,-28.4504 -13.0845,-6.5564 -36.3207,-8.9036 -50.685468,4.1169 -4.19432,3.8018 -7.63229,8.9137 -9.84036,15.6137 -0.64451,1.9556 -1.80964,4.0465 -1.60739,6.2796 l 3.07843,42.463199 c 17.866188,35.3508 58.957598,14.4477 63.817898,-2.658699 8.02132,-5.9872 10.53504,-19.9855 10.7246,-37.3643 z"
         id="path259"
         sodipodi:nodetypes="cssscccc" />
      <path
         style="fill:#ecaf8a;fill-opacity:1;stroke:#000000;stroke-width:3;stroke-linecap:round;stroke-dasharray:none;paint-order:normal"
         d="m 151.58706,81.377061 c 5.53627,-8.9702 11.10243,-5.3663 13.04166,-0.7055 0.42356,1.018 0.41129,5.7789 0.0294,7.9122 -0.57971,3.2383 -2.47455,6.5764 -5.69862,8.8744 -2.72313,1.9409 -6.04796,2.3077 -10.01685,1.9608"
         id="path260"
         sodipodi:nodetypes="csssc" />
    </g>
    <ellipse
       style="opacity:1;fill:#333333;stroke-width:3;stroke-linecap:round"
       id="path1"
       cx="96.31263"
       cy="92.930481"
       rx="1.76973"
       ry="3.7360961" />
    <ellipse
       style="fill:#333333;stroke-width:2.87091;stroke-linecap:round"
       id="path1-6"
       cx="82.904915"
       cy="92.707748"
       rx="1.76973"
       ry="3.4214778" />
  </g>
</svg>
