<?xml version="1.0" encoding="UTF-8" standalone="no"?>
<!-- Created with Inkscape (http://www.inkscape.org/) -->

<svg
   width="210mm"
   height="297mm"
   viewBox="0 0 210 297"
   version="1.1"
   id="svg1"
   inkscape:version="1.3.2 (091e20e, 2023-11-25)"
   sodipodi:docname="_template_female.svg"
   xmlns:inkscape="http://www.inkscape.org/namespaces/inkscape"
   xmlns:sodipodi="http://sodipodi.sourceforge.net/DTD/sodipodi-0.dtd"
   xmlns="http://www.w3.org/2000/svg"
   xmlns:svg="http://www.w3.org/2000/svg">
  <sodipodi:namedview
     id="namedview1"
     pagecolor="#ffffff"
     bordercolor="#000000"
     borderopacity="0.25"
     inkscape:showpageshadow="2"
     inkscape:pageopacity="0.0"
     inkscape:pagecheckerboard="0"
     inkscape:deskcolor="#d1d1d1"
     inkscape:document-units="mm"
     inkscape:zoom="0.5946522"
     inkscape:cx="202.63946"
     inkscape:cy="511.2232"
     inkscape:window-width="2560"
     inkscape:window-height="1027"
     inkscape:window-x="0"
     inkscape:window-y="25"
     inkscape:window-maximized="1"
     inkscape:current-layer="layer1"
     showguides="true">
    <sodipodi:guide
       position="114.8358,183.10806"
       orientation="0,-1"
       id="guide1"
       inkscape:locked="false" />
    <sodipodi:guide
       position="117.03813,203.87289"
       orientation="0,-1"
       id="guide2"
       inkscape:locked="false" />
    <sodipodi:guide
       position="101.3072,197.4232"
       orientation="0,-1"
       id="guide3"
       inkscape:locked="false" />
    <sodipodi:guide
       position="119.24046,47.822035"
       orientation="0,-1"
       id="guide4"
       inkscape:locked="false" />
    <sodipodi:guide
       position="127.26324,263.33581"
       orientation="1,0"
       id="guide5"
       inkscape:locked="false" />
    <sodipodi:guide
       position="96.430612,212.83952"
       orientation="1,0"
       id="guide7"
       inkscape:locked="false" />
    <sodipodi:guide
       position="83.05932,204.50212"
       orientation="1,0"
       id="guide8"
       inkscape:locked="false" />
  </sodipodi:namedview>
  <defs
     id="defs1" />
  <g
     inkscape:label="Layer 1"
     inkscape:groupmode="layer"
     id="layer1">
    <ellipse
       style="opacity:0.33;fill:#000000;fill-opacity:1;stroke:#000000;stroke-width:1.85225;stroke-linecap:round;stroke-dasharray:none;paint-order:normal"
       id="path445"
       cx="106.03278"
       cy="253.7019"
       rx="87.315117"
       ry="16.719917" />
    <g
       id="g2"
       transform="matrix(0.63118746,0,0,0.63118746,-6.9301369,63.442334)">
      <path
         style="fill:#f5ae7a;fill-opacity:1;stroke:#000000;stroke-width:6;stroke-linecap:round;stroke-dasharray:none;paint-order:stroke fill markers"
         d="m 148.5762,88.4186 c -7.1286,2.0451 -9.4536,3.8921 -13.2038,9.4132 -2.9465,19.7088 -6.8139,26.623 -6.444,40.3064 -1.3146,8.5767 10.4055,9.1586 13.9619,3.601 5.1893,-22.7283 1.1745,-14.6874 7.8339,-38.2847 0.994,-4.8184 1.6888,-11.9665 -2.148,-15.0359 z"
         id="path271-1-8"
         sodipodi:nodetypes="cccccc" />
      <path
         style="fill:#f5ae7a;fill-opacity:1;stroke:#000000;stroke-width:6;stroke-linecap:round;stroke-dasharray:none;paint-order:stroke fill markers"
         d="m 128.3976,133.6613 c -3.855,18.8613 -4.5472,26.3791 -5.5595,36.6422 1.7631,7.4201 9.3806,11.705 15.2886,-1.6426 1.8939,-8.774 4.9795,-29.0433 3.1588,-34.81 -5.1143,-2.8768 -8.3711,-2.1365 -12.8879,-0.1896 z"
         id="path272-7-3"
         sodipodi:nodetypes="ccccc" />
      <path
         style="fill:#f5ae7a;fill-opacity:1;stroke:#000000;stroke-width:6;stroke-linecap:round;stroke-dasharray:none;paint-order:stroke fill markers"
         d="m 120.409,174.1175 c -1.2282,3.8098 -3.0015,7.5562 -2.8271,11.6618 -0.3148,3.129 0.6189,6.2515 2.8291,8.5315 2.0769,1.9938 6.5547,2.8944 9.3556,2.624 2.2346,-1.381 5.1145,-0.4843 6.5046,-2.2621 1.2187,-2.2397 2.0932,-2.6276 3.5911,-4.4882 1.2854,-2.8583 -0.8301,-5.5046 -1.4911,-8.1861 -0.054,-3.3579 -0.9428,-6.653 -1.0976,-10.0198 -1.4492,-2.1889 -4.9229,-1.4052 -7.3005,-1.7137 -4.995,0.1679 -9.1186,2.1826 -9.5641,3.8526 z"
         id="path273-4-1"
         sodipodi:nodetypes="cccccccccc" />
      <path
         style="fill:#f5ae7a;fill-opacity:1;stroke:#000000;stroke-width:4.59634;stroke-linecap:round;stroke-dasharray:none;paint-order:stroke fill markers"
         d="m 125.1091,186.5613 c -1.2173,10.1332 9.6516,10.137 6.0572,0.9241"
         id="path274-5-0"
         sodipodi:nodetypes="cc" />
      <path
         style="fill:#f5ae7a;fill-opacity:1;stroke:#000000;stroke-width:6;stroke-linecap:round;stroke-dasharray:none;paint-order:stroke fill markers"
         d="m 208.9246,278.1821 c 2.1101,2.8572 9.5632,25.9818 4.1847,30.3812 -8.0763,7.4101 -25.3659,10.0453 -30.0335,0.6414 1.9621,-13.4256 5.4764,-14.5757 9.5476,-29.7995 5.53,-0.8323 10.7346,-1.4967 16.3012,-1.2231 z"
         id="path277-1-0"
         sodipodi:nodetypes="ccccc" />
      <path
         style="fill:#f5ae7a;fill-opacity:1;stroke:#000000;stroke-width:6;stroke-linecap:round;stroke-dasharray:none;paint-order:stroke fill markers"
         d="m 163.1304,272.9777 c 1.9836,6.8711 2.4179,14.1562 3.5855,21.146 -0.5246,2.705 -33.071,14.2375 -46.7634,8.7246 -5.5289,-2.8651 -1.9971,-6.0448 0.3641,-10.0698 12.1666,-8.2669 26.4959,-22.7395 42.8138,-19.8008 z"
         id="path278-4-8"
         sodipodi:nodetypes="ccccc" />
      <path
         style="fill:#f5ae7a;fill-opacity:1;stroke:#000000;stroke-width:6;stroke-linecap:round;stroke-dasharray:none;paint-order:stroke fill markers"
         d="m 205.1241,231.5046 c 4.0451,12.8899 3.4382,34.4024 4.2513,45.5868 -1.1598,8.9895 -11.2871,16.776 -16.3553,0.344 -2.2432,-6.3928 -2.8455,-25.3648 -5.9324,-35.8902 -1.0249,-19.4241 13.3905,-22.6747 18.0364,-10.0406 z"
         id="path276-6-0"
         sodipodi:nodetypes="ccccc" />
      <path
         style="fill:#f5ae7a;fill-opacity:1;stroke:#000000;stroke-width:6;stroke-linecap:round;stroke-dasharray:none;paint-order:stroke fill markers"
         d="m 144.5919,269.2371 c -0.469,-10.1216 -1.6263,-18.9628 -1.0263,-30.7628 -0.5918,-15.4578 22.9743,-10.7043 21.8658,1.8797 -1.7645,10.1537 -3.7271,27.8455 -4.58,36.6373 -8.4112,7.6995 -16.3592,-0.2113 -16.2595,-7.7542 z"
         id="path279-0-4"
         sodipodi:nodetypes="ccccc" />
      <path
         style="fill:#f5ae7a;fill-opacity:1;stroke:#000000;stroke-width:6;stroke-linecap:round;stroke-dasharray:none;paint-order:stroke fill markers"
         d="m 203.8687,176.8529 c 0.4582,20.6137 -0.3511,25.9776 0.5394,50.2575 0.6973,9.2712 -18.6364,19.2299 -22.0982,8.9049 -4.5368,-15.8691 -12.3257,-24.1282 -12.8579,-52.4589 -1.0204,-11.7024 27.4617,-20.6026 34.4167,-6.7035 z"
         id="path275-3-7"
         sodipodi:nodetypes="ccccc" />
      <path
         style="fill:#f5ae7a;fill-opacity:1;stroke:#000000;stroke-width:6;stroke-linecap:round;stroke-dasharray:none;paint-order:stroke fill markers"
         d="m 142.4046,232.3227 c -2.6647,-13.5288 -7.0274,-48.3154 -5.9098,-55.8886 -1.1802,-21.1117 26.9882,-21.0013 29.3799,0.7368 0.4801,15.703 -1.9468,32.6213 -2.7419,48.3004 0.099,9.0865 -20.3483,10.7663 -20.7282,6.8514 z"
         id="path280-2-6"
         sodipodi:nodetypes="ccccc" />
      <path
         style="fill:#f5ae7a;fill-opacity:1;stroke:#000000;stroke-width:6;stroke-linecap:round;stroke-dasharray:none;paint-order:stroke fill markers"
         d="m 197.4472,85.0027 c 3.9894,0.5052 11.8007,3.2343 16.4675,14.8194 3.4514,14.082 5.259,23.9954 6.5533,37.1181 -0.016,8.2592 -9.3101,10.4124 -15.5979,4.5548 -1.5535,-7.2014 -0.6328,-6.5902 -2.323,-11.6851 -2.8174,-16.7942 -10.6591,-38.1015 -5.0999,-44.8072 z"
         id="path263-1-1"
         sodipodi:nodetypes="cccccc" />
      <path
         style="fill:#f5ae7a;fill-opacity:1;stroke:#000000;stroke-width:6;stroke-linecap:round;stroke-dasharray:none;paint-order:stroke fill markers"
         d="m 221.7881,137.75 c 0.592,11.8583 2.1719,26.4335 1.9087,38.286 -0.1306,6.9698 -12.946,9.2363 -13.8078,-1.9943 -0.3778,-10.2035 -3.4028,-23.9464 -4.3104,-32.8922 4.2874,-13.5312 14.2275,-11.4022 16.2095,-3.3995 z"
         id="path264-4-6"
         sodipodi:nodetypes="ccccc" />
      <path
         style="fill:#f5ae7a;fill-opacity:1;stroke:#000000;stroke-width:5.11449;stroke-linecap:round;stroke-dasharray:none;paint-order:stroke fill markers"
         d="m 224.2514,181.313 c 1.0403,5.0893 2.0306,10.587 0.2319,15.6156 -0.886,2.5697 -3.54,3.4959 -5.8941,4.207 -2.2174,0.3401 -3.844,2.5575 -6.2263,2.0135 -2.0941,-1.2228 -4.6568,-0.1079 -6.7497,-1.3643 -2.2413,-1.7695 -0.7977,-5.1734 -3.5031,-6.6763 -0.7288,-3.9158 -0.1239,-8.6097 3.1194,-11.3314 2.0166,-2.0734 4.1358,-4.037 6.4557,-5.7767 3.3862,-0.7524 7.1282,-0.5133 10.2823,0.974 1.0225,0.5179 1.6056,1.4706 2.2839,2.3386 z"
         id="path265-7-1" />
      <path
         style="fill:#f5ae7a;fill-opacity:1;stroke:#000000;stroke-width:2.55724;stroke-linecap:round;stroke-dasharray:none;paint-order:normal"
         d="m 217.7411,202.0388 c 1.6503,-1.4023 1.8472,-5.0609 1.8861,-6.1257"
         id="path267-0-4"
         sodipodi:nodetypes="cc" />
      <path
         style="fill:#f5ae7a;fill-opacity:1;stroke:#000000;stroke-width:2.55724;stroke-linecap:round;stroke-dasharray:none;paint-order:normal"
         d="m 210.1629,202.7515 c 1.6099,-0.8019 3.7817,-4.2263 3.9047,-6.0579"
         id="path268-9-9"
         sodipodi:nodetypes="cc" />
      <path
         style="fill:#f5ae7a;fill-opacity:1;stroke:#000000;stroke-width:2.55724;stroke-linecap:round;stroke-dasharray:none;paint-order:normal"
         d="m 202.7219,196.7615 c 0.531,-1.4896 3.8281,-4.3736 5.5468,-4.5242"
         id="path269-5-6"
         sodipodi:nodetypes="cc" />
      <path
         style="fill:#f5ae7a;fill-opacity:1;stroke:#000000;stroke-width:2.55724;stroke-linecap:round;stroke-dasharray:none;paint-order:normal"
         d="m 208.1879,189.9357 c 0.9594,1.5082 0.7053,3.3844 0.5385,5.0622"
         id="path270-7-4"
         sodipodi:nodetypes="cc" />
      <path
         style="fill:#f5ae7a;fill-opacity:1;stroke:#000000;stroke-width:6;stroke-linecap:round;stroke-dasharray:none;paint-order:stroke fill markers"
         d="m 202.3216,92.6852 c 0.9381,9.6423 -0.5995,18.1964 -1.3548,27.7908 -0.1495,6.4705 -5.9468,12.7192 -5.9656,19.0501 1.3097,11.8591 6.3887,27.4299 10.2907,41.572 -4.6782,6.9 -11.7743,7.5557 -19.2733,8.4484 -8.9247,1.1737 -17.9884,0.477 -26.956,0.2192 -7.4835,-1.2216 -15.3668,-1.9456 -22.0563,-5.7855 -1.8859,-8.1135 5.3799,-44.9279 5.8407,-52.6709 -4.2816,-8.1575 -8.4113,-11.9552 -4.1306,-20.6373 3.5673,-8.2296 7.0758,-18.3954 9.9027,-23.7821 5.7662,-2.1701 6.1284,-1.1641 11.905,-2.6414 8.5479,-1.8968 16.9137,-2.2002 25.6579,-2.215 7.8091,0.796 15.1871,3.0769 16.1396,10.6517 z"
         id="path281-2"
         sodipodi:nodetypes="ccccccccccccc" />
      <path
         style="fill:#f5ae7a;fill-opacity:1;stroke:#000000;stroke-width:3;stroke-linecap:round;stroke-dasharray:none;paint-order:normal"
         d="m 158.3427,86.6991 0.908,-14.0221 24.3507,-5.9739 0.7251,15.2118"
         id="path261-7-8"
         sodipodi:nodetypes="cccc" />
      <path
         style="fill:#f5ae7a;fill-opacity:1;stroke:#000000;stroke-width:5.79567;stroke-linecap:square;stroke-dasharray:none;paint-order:stroke fill markers"
         d="m 205.1201,28.8422 c 0.4851,-10.0044 -8.6546,-30.3538 -16.9062,-34.5481 -12.5487,-6.3785 -34.8336,-8.662 -48.6102,4.0053 -4.0226,3.6987 -7.3198,8.672 -9.4375,15.1903 -0.6181,1.9025 -1.4696,10.0538 -1.2756,12.2263 l 4.6148,30.811 c 6.8838,24.2849 38.2667,29.1308 60.7394,-0.2309 7.6929,-5.8249 10.6935,-10.5464 10.8753,-27.4539 z"
         id="path259-2-4-3-6"
         sodipodi:nodetypes="cssscccc" />
      <path
         style="fill:#f5ae7a;fill-opacity:1;stroke:#000000;stroke-width:3.22226;stroke-linecap:round;stroke-dasharray:none;paint-order:normal"
         d="m 197.9107,38.5283 c 5.8504,-9.7928 11.7324,-5.8584 13.7816,-0.7702 0.4476,1.1114 0.4346,6.309 0.031,8.6379 -0.6126,3.5353 -2.615,7.1795 -6.0219,9.6884 -2.8777,2.1188 -6.3912,2.5193 -10.5853,2.1406"
         id="path260-9-4"
         sodipodi:nodetypes="csssc" />
    </g>
    <ellipse
       style="opacity:1;fill:#333333;stroke-width:3;stroke-linecap:round"
       id="path1"
       cx="96.31263"
       cy="92.930481"
       rx="1.76973"
       ry="3.7360961" />
    <ellipse
       style="fill:#333333;stroke-width:2.87091;stroke-linecap:round"
       id="path1-6"
       cx="82.904915"
       cy="92.707748"
       rx="1.76973"
       ry="3.4214778" />
  </g>
</svg>
