<?xml version="1.0" encoding="UTF-8" standalone="no"?>
<!-- Created with Inkscape (http://www.inkscape.org/) -->

<svg
   width="200"
   height="200"
   viewBox="0 0 52.916665 52.916666"
   version="1.1"
   id="svg1"
   xml:space="preserve"
   inkscape:version="1.4.2 (ebf0e940, 2025-05-08)"
   sodipodi:docname="coffee_monk.svg"
   inkscape:export-filename="/Users/<redacted>/Desktop/coffee_monk.png"
   inkscape:export-xdpi="96"
   inkscape:export-ydpi="96"
   xmlns:inkscape="http://www.inkscape.org/namespaces/inkscape"
   xmlns:sodipodi="http://sodipodi.sourceforge.net/DTD/sodipodi-0.dtd"
   xmlns:xlink="http://www.w3.org/1999/xlink"
   xmlns="http://www.w3.org/2000/svg"
   xmlns:svg="http://www.w3.org/2000/svg"><sodipodi:namedview
     id="namedview1"
     pagecolor="#ffffff"
     bordercolor="#000000"
     borderopacity="0.25"
     inkscape:showpageshadow="2"
     inkscape:pageopacity="0.0"
     inkscape:pagecheckerboard="0"
     inkscape:deskcolor="#d1d1d1"
     inkscape:document-units="mm"
     inkscape:zoom="1.4823794"
     inkscape:cx="55.316473"
     inkscape:cy="68.133705"
     inkscape:window-width="1920"
     inkscape:window-height="1147"
     inkscape:window-x="0"
     inkscape:window-y="25"
     inkscape:window-maximized="1"
     inkscape:current-layer="layer1"
     showguides="true" /><defs
     id="defs1"><linearGradient
       id="linearGradient19"
       inkscape:collect="always"><stop
         style="stop-color:#ffffff;stop-opacity:1"
         offset="0"
         id="stop18" /><stop
         style="stop-color:#ffffff;stop-opacity:0;"
         offset="1"
         id="stop19" /></linearGradient><linearGradient
       id="linearGradient36"
       inkscape:collect="always"><stop
         style="stop-color:#ffffff;stop-opacity:1"
         offset="0"
         id="stop36" /><stop
         style="stop-color:#ff6600;stop-opacity:1"
         offset="1"
         id="stop37" /></linearGradient><radialGradient
       inkscape:collect="always"
       xlink:href="#linearGradient36"
       id="radialGradient37"
       cx="5.1962986"
       cy="6.1638484"
       fx="5.1962986"
       fy="6.1638484"
       r="30.155869"
       gradientTransform="matrix(-1.1436525,3.1011628,-3.762627,-1.3881333,53.619443,39.517392)"
       gradientUnits="userSpaceOnUse" /><linearGradient
       inkscape:collect="always"
       xlink:href="#linearGradient19"
       id="linearGradient16"
       x1="37.042152"
       y1="29.091026"
       x2="37.736298"
       y2="7.8880224"
       gradientUnits="userSpaceOnUse"
       gradientTransform="translate(0.94524912,-0.12303721)" /></defs><g
     inkscape:label="Layer 1"
     inkscape:groupmode="layer"
     id="layer1"><rect
       style="opacity:1;fill:url(#radialGradient37);fill-opacity:1;stroke:none;stroke-width:0.629375;stroke-dasharray:none"
       id="rect37"
       width="60.311737"
       height="57.389084"
       x="-1.4485633"
       y="-1.8066967" /><path
       style="fill:#ff7f2a;fill-opacity:1;stroke:#000000;stroke-width:1.34091;stroke-dasharray:none"
       d="m 17.614312,36.321359 -0.598331,1.914658 -3.230986,0.119673 -0.957329,0.678108 -1.276436,2.034322 -3.3847372,0.0673 c -0.5908904,0.56425 -1.1725582,1.146946 -1.6464803,1.945133 l -2.5590954,8.415883 -1.8072186,8.747372 5.4039199,1.25682 1.5075402,-8.259546 2.0898894,-8.222662 -0.622673,9.139937 -0.8958002,4.420888 6.5816302,2.67254 5.983304,0.997216 5.743968,-0.478665 3.470313,-0.917439 2.114105,-1.037105 0.07976,-2.911876 -0.03989,-2.233765 -0.280574,-6.141506 8.195788,8.259095 4.846446,-0.801757 L 35.962418,42.25125 33.44334,39.795737 31.502995,39.241359 29.907451,39.081803 26.286363,38.419921 25.073478,37.43825 v 1.994433 l 0.03989,-1.994433 H 21.92229 l -1.914653,-0.398888 -1.515771,-0.67811 -0.91744,-0.478664 z"
       id="path31"
       sodipodi:nodetypes="ccccccccccccccccccccccccccccccccccccc" /><ellipse
       style="fill:#f5b379;fill-opacity:1;stroke:#000000;stroke-width:0.893936;stroke-dasharray:none"
       id="path1-9"
       cx="22.491348"
       cy="20.902262"
       rx="15.964344"
       ry="16.50025" /><g
       id="g3-0"
       style="fill:#ffffff"
       transform="matrix(0.34327215,0,0,0.34327215,107.56827,-3.1829633)"><ellipse
         style="fill:#000000;stroke:none;stroke-width:1.16081;stroke-dasharray:none"
         id="path2-0-1"
         cx="-252.58032"
         cy="68.232994"
         rx="4.305964"
         ry="8.0318518" /></g><g
       id="g3-0-7"
       style="fill:#ffffff"
       transform="matrix(0.34327215,0,0,0.34327215,117.76387,-3.2318449)"><ellipse
         style="fill:#000000;stroke:none;stroke-width:1.16081;stroke-dasharray:none"
         id="path2-0-1-0"
         cx="-256.07312"
         cy="67.957245"
         rx="4.305964"
         ry="8.0318518" /></g><path
       style="fill:#000000;fill-opacity:1;stroke:none;stroke-width:0.593759;stroke-dasharray:none"
       d="m 29.095544,24.460388 c 2.676873,0.765167 0.638094,5.474653 -2.037074,2.389759 2.091274,0.770016 3.251878,-0.650854 1.48915,-2.033276 -0.159117,-0.367582 0.547893,-0.356533 0.547893,-0.356533 z"
       id="path4-7"
       sodipodi:nodetypes="cccc" /><path
       style="fill:none;fill-opacity:1;stroke:#1a1a1a;stroke-width:0.950245;stroke-linecap:round;stroke-dasharray:none"
       d="m 29.212836,15.881557 c 1.825119,-0.280887 3.293266,-0.2743 4.939899,-0.154768"
       id="path28"
       sodipodi:nodetypes="cc" /><path
       style="fill:none;fill-opacity:1;stroke:#1a1a1a;stroke-width:0.950245;stroke-linecap:round;stroke-dasharray:none"
       d="m 19.27462,15.902036 c 2.088362,-0.970006 5.501912,-0.0029 5.886462,0.223855"
       id="path28-0"
       sodipodi:nodetypes="cc" /><path
       style="fill:none;fill-opacity:1;stroke:#1a1a1a;stroke-width:0.950245;stroke-linecap:round;stroke-dasharray:none"
       d="m 29.324583,30.771141 c -1.23796,0.582343 -2.761197,1.025209 -5.408965,-0.161422"
       id="path28-0-6"
       sodipodi:nodetypes="cc" /><path
       style="fill:#f5b379;fill-opacity:1;stroke:#000000;stroke-width:0.819948;stroke-linecap:round;stroke-dasharray:none"
       d="M 12.73143,20.756198 C 4.7461749,15.09705 7.2366802,29.550931 12.296025,26.247213 l 0.144542,-0.071"
       id="path29-3"
       sodipodi:nodetypes="ccc" /><path
       style="fill:#000000;fill-opacity:1;stroke:none;stroke-width:0.369537;stroke-dasharray:none"
       d="m 9.5812703,22.266566 c 1.0068877,-1.410143 3.3635937,0.868592 1.6138487,1.96598 0.654956,-0.964584 -0.340847,-2.315725 -1.5190661,-1.570344 -0.2487258,0.01664 -0.094815,-0.395626 -0.094815,-0.395626 z"
       id="path4-7-1"
       sodipodi:nodetypes="ccccc" /><path
       style="fill:none;stroke:#000000;stroke-width:1.21139;stroke-linecap:round"
       d="m 18.102253,42.785401 c 0.946663,0.749434 1.88486,1.749419 3.13419,1.949313 0.265388,0.04246 0.534686,0.05583 0.802657,0.07644 0.04588,0.0035 0.229093,-0.0013 0.229331,0 0.02962,0.177657 -0.03028,0.360935 -0.03822,0.535105 -0.0081,0.178187 -0.01544,0.357408 0,0.535106 0.02738,0.314867 0.192517,0.578953 0.267552,0.879101 0.0062,0.02471 -0.0094,0.05278 0,0.07645 0.03548,0.08871 0.111327,0.184439 0.152888,0.267551 0.0057,0.01139 -0.009,0.02919 0,0.03822 0.009,0.009 0.02683,-0.0057 0.03822,0 0.06447,0.03224 0.106747,0.09752 0.152888,0.152888 0.04756,0.05707 0.06213,0.138581 0.11467,0.191109 0.0191,0.0191 0.05733,0.0191 0.07644,0.03822 0.009,0.009 -0.01272,0.03822 0,0.03822 0.205141,0 0.691625,-0.576963 0.726215,-0.611553 0.09904,-0.09904 0.270792,-0.235811 0.343997,-0.382218 0.186465,-0.372933 0.278017,-0.865452 0.343994,-1.261317 0.01461,-0.08779 -0.01054,-0.18061 0.03822,-0.229331 0.01801,-0.01801 0.05365,0.01139 0.07644,0 0.04452,-0.02228 0.07014,-0.05418 0.11467,-0.07645 0.11639,-0.05819 0.332253,-0.05721 0.45866,-0.11467 0.614953,-0.279526 1.103981,-0.733173 1.68176,-1.070212 0.119746,-0.06985 0.42044,-0.172038 0.42044,-0.343997"
       id="path5" /><circle
       style="fill:#5b2e00;fill-opacity:1;stroke:#000000;stroke-width:1;stroke-linecap:round"
       id="path13-6-8-3"
       cx="12.712605"
       cy="39.671207"
       r="3.0565653" /><circle
       style="fill:#5b2e00;fill-opacity:1;stroke:#000000;stroke-width:1;stroke-linecap:round"
       id="path13-6-8"
       cx="16.152187"
       cy="42.674015"
       r="3.0565653" /><circle
       style="fill:#5b2e00;fill-opacity:1;stroke:#000000;stroke-width:1;stroke-linecap:round"
       id="path13-6"
       cx="20.477909"
       cy="44.943413"
       r="3.0565653" /><circle
       style="fill:#5b2e00;fill-opacity:1;stroke:#000000;stroke-width:1;stroke-linecap:round"
       id="path13-6-8-3-9-3"
       cx="32.016571"
       cy="39.795639"
       r="3.0565653" /><circle
       style="fill:#5b2e00;fill-opacity:1;stroke:#000000;stroke-width:1;stroke-linecap:round"
       id="path13-6-8-3-9"
       cx="28.815229"
       cy="43.802128"
       r="3.0565653" /><path
       style="fill:#ff7f2a;fill-opacity:1;stroke:#000000;stroke-width:1.21139;stroke-linecap:round"
       d="m 49.053848,59.102347 c 1.611567,-1.126924 4.286634,-1.75207 4.671202,-3.897424 0.0069,-2.420562 -0.218414,-4.862006 -0.646257,-7.246651 -0.830722,-3.853613 -2.254095,-7.557036 -3.303587,-11.342788 -1.901469,-0.804895 -4.100385,1.300472 -5.986355,1.76405 2.642242,2.248921 1.627165,12.305825 1.608697,18.982488 0.569315,1.438951 2.367191,1.50142 3.656305,1.740325 z"
       id="path7-5"
       sodipodi:nodetypes="cccccccc" /><path
       style="fill:#ff0000;fill-opacity:1;stroke:#000000;stroke-width:0.811726;stroke-linecap:round"
       d="m 42.934534,34.317312 -0.102445,-2.305048 -8.63113,0.128059 0.486623,14.009573 7.094427,-0.15367 z"
       id="path12" /><path
       style="opacity:1;fill:url(#linearGradient16);fill-opacity:1;stroke:none;stroke-width:0.338;stroke-linecap:round;stroke-dasharray:none"
       d="m 42.089174,31.744574 c -1.013584,0.198872 -1.308376,-1.845268 -1.170907,-2.868989 0.300312,-2.236407 3.766569,-3.142207 4.120771,-5.370714 0.329225,-2.071361 -2.390779,-3.857328 -2.09367,-5.933539 0.430894,-3.011108 9.261509,-7.450457 5.328015,-7.408387 -3.933494,0.04207 -7.866989,0.08414 -11.800483,0.126208 -3.933494,0.04207 -3.443807,5.18157 -3.173684,8.054696 0.188549,2.005475 3.232246,3.096549 3.224364,5.110853 -0.0071,1.813088 -2.973261,2.764697 -2.938183,4.57746 0.02969,1.53443 0.678858,3.796547 2.635088,3.775517 1.956228,-0.02103 3.912469,-0.0421 5.868689,-0.06311 2e-6,0 2e-6,5e-6 0,5e-6 z"
       id="path16"
       sodipodi:nodetypes="ssssssssssss" /><path
       style="opacity:1;fill:#f5b379;fill-opacity:1;stroke:none;stroke-width:0.338;stroke-linecap:round;stroke-dasharray:none"
       d="m 17.893178,37.124999 -0.513146,1.695612 2.030274,1.316331 1.91872,0.379283 1.494816,-0.08924 0.669321,-0.223107 0.892428,-0.535456 0.08924,-1.896409 -2.476488,0.245417 -2.074894,-0.356971 -1.137846,-0.334661 z"
       id="path19" /><circle
       style="opacity:1;fill:#5b2e00;fill-opacity:1;stroke:#000000;stroke-width:1;stroke-linecap:round"
       id="path13"
       cx="25.144154"
       cy="46.919395"
       r="3.0565653" /><path
       style="opacity:1;fill:#ff0000;fill-opacity:1;stroke:#000000;stroke-width:0.638;stroke-linecap:round;stroke-dasharray:none"
       d="m 43.015022,32.930588 -0.245415,1.450194 3.592021,2.721906 -0.178486,1.00398 -4.105166,4.194413 -0.133865,1.65099 5.198392,-4.975283 0.133863,-3.034255 -4.283652,-3.19043 z"
       id="path21"
       sodipodi:nodetypes="cccccccccc" /><path
       style="fill:#f5b379;fill-opacity:1;stroke:#000000;stroke-width:1.42268;stroke-linecap:round"
       d="m 46.079109,34.362514 c -1.909176,-0.06287 -3.924388,1.540849 -3.531572,3.589482 0.362113,1.679859 0.850089,3.432213 1.779646,4.886783 0.665961,0.870528 1.68795,1.002593 2.6919,0.829151 0.604644,-0.104459 1.202745,-0.319732 1.712586,-0.551239 1.584319,-0.927303 1.732999,-3.031481 1.6626,-4.68303 -0.169265,-1.537697 -0.403108,-3.33411 -1.662091,-4.363181 -0.858319,-0.404609 -1.850706,-0.09958 -2.653069,0.292034 z"
       id="path1"
       sodipodi:nodetypes="cccscccc" /><path
       style="opacity:1;fill:none;fill-opacity:1;stroke:#000000;stroke-width:0.638;stroke-linecap:round;stroke-dasharray:none"
       d="m 16.956129,38.597503 c 1.301279,2.605278 8.359104,2.299934 7.541015,0.356972"
       id="path22"
       sodipodi:nodetypes="cc" /><ellipse
       style="opacity:1;fill:#643b00;fill-opacity:1;stroke:#000000;stroke-width:0.113897;stroke-linecap:round;stroke-dasharray:none"
       id="path23"
       cx="39.858177"
       cy="37.688972"
       rx="1.0611585"
       ry="0.67464554" /><ellipse
       style="fill:#643b00;fill-opacity:1;stroke:#000000;stroke-width:0.113897;stroke-linecap:round;stroke-dasharray:none"
       id="path23-3"
       cx="38.083569"
       cy="38.314594"
       rx="1.0611585"
       ry="0.67464554" /><ellipse
       style="fill:#643b00;fill-opacity:1;stroke:#000000;stroke-width:0.113897;stroke-linecap:round;stroke-dasharray:none"
       id="path23-3-2"
       cx="39.584568"
       cy="38.942024"
       rx="1.0611585"
       ry="0.67464554" /><ellipse
       style="fill:#643b00;fill-opacity:1;stroke:#000000;stroke-width:0.113897;stroke-linecap:round;stroke-dasharray:none"
       id="path23-3-2-0"
       cx="37.687828"
       cy="39.550072"
       rx="1.0611585"
       ry="0.67464554" /></g></svg>
