<?xml version="1.0" encoding="UTF-8" standalone="no"?>
<!-- Created with Inkscape (http://www.inkscape.org/) -->

<svg
   width="200"
   height="200"
   viewBox="0 0 52.916665 52.916666"
   version="1.1"
   id="svg1"
   xml:space="preserve"
   inkscape:version="1.4.2 (ebf0e940, 2025-05-08)"
   sodipodi:docname="oops.svg"
   inkscape:export-filename="../../phaser/public/assets/cards/oops.png"
   inkscape:export-xdpi="96"
   inkscape:export-ydpi="96"
   xmlns:inkscape="http://www.inkscape.org/namespaces/inkscape"
   xmlns:sodipodi="http://sodipodi.sourceforge.net/DTD/sodipodi-0.dtd"
   xmlns:xlink="http://www.w3.org/1999/xlink"
   xmlns="http://www.w3.org/2000/svg"
   xmlns:svg="http://www.w3.org/2000/svg"><sodipodi:namedview
     id="namedview1"
     pagecolor="#ffffff"
     bordercolor="#000000"
     borderopacity="0.25"
     inkscape:showpageshadow="2"
     inkscape:pageopacity="0.0"
     inkscape:pagecheckerboard="0"
     inkscape:deskcolor="#d1d1d1"
     inkscape:document-units="mm"
     inkscape:zoom="0.7411897"
     inkscape:cx="121.4264"
     inkscape:cy="126.82313"
     inkscape:window-width="1920"
     inkscape:window-height="1147"
     inkscape:window-x="0"
     inkscape:window-y="25"
     inkscape:window-maximized="1"
     inkscape:current-layer="layer1"
     showguides="true" /><defs
     id="defs1"><linearGradient
       id="linearGradient36"
       inkscape:collect="always"><stop
         style="stop-color:#ffffff;stop-opacity:1"
         offset="0"
         id="stop36" /><stop
         style="stop-color:#0000ff;stop-opacity:1"
         offset="1"
         id="stop37" /></linearGradient><radialGradient
       inkscape:collect="always"
       xlink:href="#linearGradient36"
       id="radialGradient37"
       cx="5.1962986"
       cy="6.1638484"
       fx="5.1962986"
       fy="6.1638484"
       r="30.155869"
       gradientTransform="matrix(-1.1436525,3.1011628,-3.762627,-1.3881333,53.619443,39.517392)"
       gradientUnits="userSpaceOnUse" /></defs><g
     inkscape:label="Layer 1"
     inkscape:groupmode="layer"
     id="layer1"><rect
       style="opacity:1;fill:url(#radialGradient37);fill-opacity:1;stroke:none;stroke-width:0.629375;stroke-dasharray:none"
       id="rect37"
       width="60.311737"
       height="57.389084"
       x="-1.4485633"
       y="-1.8066967" /><path
       style="fill:#f5b379;fill-opacity:1;stroke:#1a1a1a;stroke-width:1.34091;stroke-dasharray:none"
       d="m 17.614312,36.321359 -0.598331,1.914658 -3.230986,0.119673 -0.957329,0.678108 -1.276436,2.034322 -1.276438,2.353431 -0.03989,4.826531 0.518553,3.151205 0.358998,3.071428 -1.4758782,4.108538 6.5816302,2.67254 5.983304,0.997216 5.743968,-0.478665 3.470313,-0.917439 2.114105,-1.037105 0.07976,-2.911876 -0.03989,-2.233765 1.236553,-5.025971 L 34.08832,44.259213 33.13099,40.509679 31.056781,38.036581 29.461237,37.877025 26.50947,37.43825 h -1.435992 v 1.994433 l 0.03989,-1.994433 H 21.92229 l -1.914653,-0.398888 -1.515771,-0.67811 -0.91744,-0.478664 z"
       id="path31" /><ellipse
       style="fill:#f5b379;fill-opacity:1;stroke:#000000;stroke-width:0.893936;stroke-dasharray:none"
       id="path1-9"
       cx="22.491348"
       cy="20.902262"
       rx="15.964344"
       ry="16.50025" /><path
       style="fill:#523488;fill-opacity:1;stroke:#000000;stroke-width:1.03027;stroke-linecap:round;stroke-dasharray:none"
       d="m 38.728963,40.079953 3.401955,7.217648 0.827495,4.321395 -5.930412,3.218056 -2.528478,-3.999586 -0.04596,-3.034171 -1.195284,-2.712364 -2.160701,-4.68917 2.252645,-1.609029 h 2.896254 z"
       id="path35-3" /><path
       style="fill:#523488;fill-opacity:1;stroke:#000000;stroke-width:1.03027;stroke-linecap:round;stroke-dasharray:none"
       d="m 7.824683,41.677599 -3.4019547,7.21765 -0.8274966,4.321391 5.9304116,3.218058 2.5284797,-3.999584 0.04596,-3.034173 1.195283,-2.712364 2.160701,-4.68917 -2.252642,-1.609029 h -2.896262 z"
       id="path35" /><g
       id="g3-0"
       style="fill:#ffffff"
       transform="matrix(0.34327215,0,0,0.34327215,109.42984,-3.3091717)"><ellipse
         style="fill:#000000;stroke:none;stroke-width:1.16081;stroke-dasharray:none"
         id="path2-0-1"
         cx="-252.58032"
         cy="68.232994"
         rx="4.305964"
         ry="8.0318518" /></g><g
       id="g3-0-7"
       style="fill:#ffffff"
       transform="matrix(0.34327215,0,0,0.34327215,117.76387,-3.2318449)"><ellipse
         style="fill:#000000;stroke:none;stroke-width:1.16081;stroke-dasharray:none"
         id="path2-0-1-0"
         cx="-252.58032"
         cy="68.232994"
         rx="4.305964"
         ry="8.0318518" /></g><path
       style="fill:#000000;fill-opacity:1;stroke:none;stroke-width:0.593759;stroke-dasharray:none"
       d="m 29.095544,24.460388 c 2.676873,0.765167 0.638094,5.474653 -2.037074,2.389759 2.091274,0.770016 3.251878,-0.650854 1.48915,-2.033276 -0.159117,-0.367582 0.547893,-0.356533 0.547893,-0.356533 z"
       id="path4-7"
       sodipodi:nodetypes="cccc" /><path
       style="opacity:1;fill:#000000;fill-opacity:1;stroke:#000000;stroke-width:0.930698;stroke-linecap:round;stroke-dasharray:none"
       d="m 22.235465,31.150453 c 1.047687,-1.05629 2.203373,0.95943 3.433817,0.13492 0.967642,-0.648409 1.540759,0.815152 3.090726,0.05225"
       id="path9"
       sodipodi:nodetypes="csc" /><path
       style="fill:none;fill-opacity:1;stroke:#1a1a1a;stroke-width:0.950245;stroke-linecap:round;stroke-dasharray:none"
       d="m 29.212836,15.881557 c 1.646633,-1.66415 3.293266,-2.148398 4.939899,-0.154768"
       id="path28"
       sodipodi:nodetypes="cc" /><path
       style="fill:none;fill-opacity:1;stroke:#1a1a1a;stroke-width:0.950245;stroke-linecap:round;stroke-dasharray:none"
       d="m 20.221183,16.280661 c 1.646632,-1.664152 3.293265,-2.148399 4.939899,-0.15477"
       id="path28-0"
       sodipodi:nodetypes="cc" /><path
       style="fill:#f5b379;fill-opacity:1;stroke:#000000;stroke-width:0.819948;stroke-linecap:round;stroke-dasharray:none"
       d="M 12.73143,20.756198 C 4.7461749,15.09705 7.2366802,29.550931 12.296025,26.247213 l 0.144542,-0.071"
       id="path29-3"
       sodipodi:nodetypes="ccc" /><path
       style="fill:#000000;fill-opacity:1;stroke:none;stroke-width:0.369537;stroke-dasharray:none"
       d="m 9.5812703,22.266566 c 1.0068877,-1.410143 3.3635937,0.868592 1.6138487,1.96598 0.654956,-0.964584 -0.340847,-2.315725 -1.5190661,-1.570344 -0.2487258,0.01664 -0.094815,-0.395626 -0.094815,-0.395626 z"
       id="path4-7-1"
       sodipodi:nodetypes="ccccc" /><path
       style="fill:none;stroke:#000000;stroke-width:1.21139;stroke-linecap:round"
       d="m 18.102253,42.785401 c 0.946663,0.749434 1.88486,1.749419 3.13419,1.949313 0.265388,0.04246 0.534686,0.05583 0.802657,0.07644 0.04588,0.0035 0.229093,-0.0013 0.229331,0 0.02962,0.177657 -0.03028,0.360935 -0.03822,0.535105 -0.0081,0.178187 -0.01544,0.357408 0,0.535106 0.02738,0.314867 0.192517,0.578953 0.267552,0.879101 0.0062,0.02471 -0.0094,0.05278 0,0.07645 0.03548,0.08871 0.111327,0.184439 0.152888,0.267551 0.0057,0.01139 -0.009,0.02919 0,0.03822 0.009,0.009 0.02683,-0.0057 0.03822,0 0.06447,0.03224 0.106747,0.09752 0.152888,0.152888 0.04756,0.05707 0.06213,0.138581 0.11467,0.191109 0.0191,0.0191 0.05733,0.0191 0.07644,0.03822 0.009,0.009 -0.01272,0.03822 0,0.03822 0.205141,0 0.691625,-0.576963 0.726215,-0.611553 0.09904,-0.09904 0.270792,-0.235811 0.343997,-0.382218 0.186465,-0.372933 0.278017,-0.865452 0.343994,-1.261317 0.01461,-0.08779 -0.01054,-0.18061 0.03822,-0.229331 0.01801,-0.01801 0.05365,0.01139 0.07644,0 0.04452,-0.02228 0.07014,-0.05418 0.11467,-0.07645 0.11639,-0.05819 0.332253,-0.05721 0.45866,-0.11467 0.614953,-0.279526 1.103981,-0.733173 1.68176,-1.070212 0.119746,-0.06985 0.42044,-0.172038 0.42044,-0.343997"
       id="path5" /><path
       style="fill:#ffffff;stroke:#000000;stroke-width:1.21139;stroke-linecap:round"
       d="m 33.161648,39.307218 c 1.956182,0.201141 4.5977,-0.553296 5.976889,1.134387 1.182988,2.111802 2.173213,4.354762 2.958846,6.646566 1.147846,3.771323 1.70479,7.699573 2.628472,11.517971 -1.270192,1.627898 -4.215368,0.857354 -6.08879,1.369288 -1.626771,-2.011445 -1.20777,-5.405381 -2.579181,-7.822026 -1.211119,-3.452693 -3.52397,-6.352427 -5.245017,-9.547622 -0.202182,-1.534217 1.338479,-2.462992 2.348781,-3.298564 z"
       id="path7"
       sodipodi:nodetypes="cccccccc" /><path
       style="fill:#ffffff;stroke:#000000;stroke-width:1.21139;stroke-linecap:round"
       d="m 49.651315,59.56177 c 1.611567,-1.126924 4.286634,-1.75207 4.671202,-3.897424 0.0069,-2.420562 -0.218414,-4.862006 -0.646257,-7.246651 -0.830722,-3.853613 -2.254095,-7.557036 -3.303587,-11.342788 -1.901469,-0.804895 -4.100385,1.300472 -5.986355,1.76405 -0.443488,2.548649 1.572892,5.310636 1.549567,8.089197 0.620504,3.605949 0.0094,7.264406 0.05913,10.893291 0.569315,1.438951 2.367191,1.50142 3.656305,1.740325 z"
       id="path7-5"
       sodipodi:nodetypes="cccccccc" /><path
       style="opacity:0.44;fill:#008000;stroke:none;stroke-width:1.21139;stroke-linecap:round"
       d="m 16.000053,20.463861 c -0.194681,-1.743524 -0.861825,-3.38182 -1.375985,-5.045278 -0.04654,-0.150565 -0.06796,-0.308151 -0.11467,-0.458662 -0.03311,-0.106663 -0.423614,-0.984242 -0.343996,-1.223098 0.0509,-0.152713 0.541699,0.155289 0.611549,0.191109 0.324835,0.166582 0.632911,0.364299 0.955545,0.535106 2.756572,1.459361 -0.0702,-0.04287 1.45243,0.687993 0.169588,0.08141 0.334598,0.172419 0.496883,0.267552 0.298193,0.174802 0.832253,0.65914 1.26132,0.573326 0.151986,-0.03039 0.07276,-0.303709 0.07644,-0.458661 0.0094,-0.394847 0.01054,-0.790058 0,-1.184876 -0.10653,-3.994752 -0.07644,0.828769 -0.07644,-3.669294 V 9.7235327 c 0,-0.037977 0.0029,-0.6144316 0.03822,-0.6497714 0.009,-0.00896 0.02683,0.00569 0.03822,0 0.01611,-0.00812 0.02548,-0.025475 0.03822,-0.038219 0.42044,0.3312563 0.83467,0.6705479 1.26132,0.9937677 1.104639,0.836847 2.130742,1.557513 3.516406,1.834647 0.288429,0.05769 0.585709,0.05548 0.879103,0.07644 0.10166,0.0073 0.20908,0.03224 0.305773,0 0.02417,-0.0081 0.0055,-0.05154 0,-0.07644 -0.06107,-0.280881 -0.137815,-0.558423 -0.191109,-0.84088 C 24.716914,10.427504 24.588336,9.4627297 24.485288,8.8444337 24.462528,8.707828 24.33714,8.4025122 24.447068,8.3475503 c 0.193724,-0.096863 0.397387,0.1794574 0.573327,0.3057737 0.331346,0.2378899 0.623246,0.527884 0.955545,0.7644365 0.698942,0.4975521 1.426187,0.9606785 2.216867,1.2995415 0.698404,0.299316 1.463666,0.502503 2.14042,0.84088 0.05096,0.02548 0.03822,-0.01274 0.03822,-0.03822 0,-0.242072 0.03681,-0.486958 0,-0.726215 -0.04045,-0.262938 -0.173969,-0.504229 -0.229331,-0.764436 -0.04343,-0.2041279 -0.200942,-1.3410843 -0.22933,-1.6817592 -0.01114,-0.1334671 0.06274,-1.1081812 0.343997,-0.9173246 0.699007,0.4743273 1.079664,0.8812107 1.681757,1.4524297 0.425272,0.4034623 0.875927,0.779677 1.299543,1.1848761 0.245862,0.23517 0.48275,0.529001 0.687993,0.802657 0.04458,0.05943 0.06213,0.138579 0.114658,0.19111 0.116741,0.116729 0.112029,0.07468 0.229334,0.152887 0.02997,0.01999 0.06033,0.108673 0.07644,0.07644 0.0604,-0.120799 0.143029,-0.60417 0.191109,-0.764435 0.09394,-0.313145 0.24793,-0.6051098 0.343998,-0.9173232 0.138631,-0.4505575 -6.42e-4,-0.1624301 0.191108,-0.573328 0.04819,-0.1032708 0.106602,-0.2016403 0.152888,-0.3057748 0.01279,-0.028795 -0.01199,-0.158859 0.07644,-0.11467 0.210122,0.1050637 0.08923,0.4618561 0.152888,0.6879931 1.238222,4.3984849 2.827856,7.1534729 2.91608,10.3949929 0.393816,14.469477 -10.321131,19.10242 -18.175346,17.709351 -6.074181,-1.077352 -10.388756,-6.404608 -10.081807,-7.999698 0.03167,-0.164554 0.329307,-0.07644 0.496883,-0.07644 0.496885,0 0.995231,-0.03811 1.490651,0 0.572225,0.04402 0.824485,0.314802 0.649771,-0.573327 -0.29638,-1.506601 -0.869446,-2.979694 -1.452429,-4.39551 -0.106396,-0.258378 -0.22308,-0.512528 -0.343996,-0.764435 -0.03215,-0.06698 -0.07346,-0.129299 -0.11467,-0.19111 -0.0099,-0.015 -0.03822,-0.02019 -0.03822,-0.03822 0,-0.01276 0.02548,0 0.03822,0 0.03822,0 0.07899,-0.01371 0.11467,0 0.298235,0.114706 0.582818,0.262563 0.879101,0.382218 0.703613,0.284151 1.196734,0.47734 1.911092,0.649769 0.152923,0.03691 0.381329,0.04311 0.382218,0.03822 0.09583,-0.527055 -0.297332,-1.615112 -0.382218,-1.834645 -0.433929,-1.122232 -0.994465,-1.797822 -1.528873,-2.866636 -0.204248,-0.408497 -0.37386,-0.83402 -0.535105,-1.261322 -0.09392,-0.2489 -0.167247,-0.50575 -0.229332,-0.764436 -0.01486,-0.06194 0,-0.127405 0,-0.191109 0,-0.01274 -0.01236,-0.04131 0,-0.03822 0.26718,0.0668 0.965369,0.66906 1.223098,0.840879 0.358735,0.239157 0.726772,0.420721 1.108433,0.611548 0.135822,0.06791 0.35462,0.214741 0.458662,0.305776 0.03457,0.03026 0.04057,0.08597 0.07644,0.11467 0.131836,0.105464 0.0788,6.41e-4 0.191108,0.03822 0.03418,0.01139 0.04646,0.05645 0.07645,0.07644 0.07634,0.0509 0.198996,0.06325 0.267552,0.11467 0.0228,0.01708 0.0138,0.06178 0.03822,0.07644 0.04505,0.02701 0.103053,0.0216 0.152888,0.03822 0.08582,0.02859 0.103877,0.07106 0.191109,0.11467 0.108104,0.05405 0.238339,0.05597 0.343996,0.11467 0.213355,0.170683 0.118147,0.116402 0.267553,0.19111 0.06137,0.03067 0.174468,0.0098 0.191109,0.07644 0.02185,0.0874 -0.02548,0.178369 -0.03822,0.267552 z"
       id="path8"
       sodipodi:nodetypes="cssssssssccsssccsssccsssssssssscsssscscsssscssssssssscsscsscsssssssssccccccsccccc" /><path
       style="opacity:1;fill:#1a1a1a;stroke:none;stroke-width:1.21139;stroke-linecap:round"
       d="m 33.366273,9.6224158 c 0,-0.2162158 -2.756745,-8.1621246 -2.756745,-8.1621246 l 0.43243,4.054035 -4.756734,-5.08105796 0.162161,3.29728226 -5.351327,-3.62160467 0.378376,2.64863627 c 0,0 -5.999972,-2.32431386 -5.513487,-1.5135066 0.486483,0.8108072 0.702699,1.9459369 0.702699,1.9459369 L 8.0690901,1.29813 10.825834,5.1900038 4.4474854,4.3251433 8.9339519,8.3251237 3.2042479,9.135931 l 2.7567441,2.864852 -3.0810665,0.972968 4.054035,2.97296 -5.6756495,1.459452 3.5134968,1.135129 -3.5675502,1.837831 4.9729502,1.027023 -2.4864751,2.702691 3.1891744,0.16216 -1.3513454,4.486468 1.2432376,-0.05405 0.8648605,0.270269 2.3243139,-2.054046 -1.9459369,-1.837828 -0.5945915,-2.8108 0.5945915,-2.378366 0.8108072,-0.378379 1.513507,0.216218 1.081076,0.43243 -0.648646,-3.891875 0.918915,-0.216214 1.13513,0.378375 -1.56756,-3.999981 2.810797,0.648646 2.432422,-2.918906 0.864861,-3.0270128 4.216197,0.8648605 1.027023,-0.8108072 c 0,0 3.783765,2.1080993 4.054034,2.3243138 0.270269,0.2162158 1.189183,-1.5135066 1.189183,-1.5135066 l 2.8108,1.9999913 0.702699,-1.2432374 1.189183,1.2972914 z"
       id="path10" /><path
       style="opacity:1;fill:#ffffff;fill-opacity:1;stroke:#000000;stroke-width:1.21139;stroke-linecap:round"
       d="M 8.0690901,59.568133 C 20.259018,68.270156 26.610631,63.27452 33.960863,62.162716 l 0.722801,-16.241708 c -0.29963,-1.694768 -0.06297,-2.906875 -1.001848,-5.176968 l -2.585803,-1.6623 c -1.932279,2.35753 -3.855519,3.890082 -5.769687,4.570117 -1.263574,0.448904 -2.523196,0.526319 -3.778853,0.224326 -2.198672,-0.528793 -4.385189,-2.220874 -6.559495,-5.118765 z"
       id="path11"
       sodipodi:nodetypes="cccccsscc" /><path
       style="fill:#ffffff;stroke:#000000;stroke-width:1.21139;stroke-linecap:round"
       d="M 11.184105,40.721423 C 8.8362244,40.488665 6.4548494,41.500442 6.0870405,44.057177 4.3480317,47.919439 2.9127202,51.941792 0.86741917,55.650513 1.5945341,57.650218 4.6311427,57.693514 6.2839141,58.87882 c 5.6261239,3.195464 6.9001289,-5.288842 7.9017649,-9.90263 0.396136,-1.944127 3.390445,-5.320189 0.637748,-6.443364 -1.181758,-0.582494 -2.802894,-0.749957 -3.639322,-1.811403 z"
       id="path6"
       sodipodi:nodetypes="ccccccc" /><path
       style="fill:#ffffff;stroke:#000000;stroke-width:1.21139;stroke-linecap:round"
       d="m 27.027048,37.89301 c 2.269734,1.082124 -0.573232,4.830613 -0.573232,4.830613 l 2.5499,2.84793 c 0,0 3.401442,-2.462195 3.306242,-4.93508 -0.274183,-1.502659 -2.287587,-4.47225 -5.28291,-2.743463 z"
       id="path4"
       sodipodi:nodetypes="ccccc" /><path
       style="fill:#ffffff;stroke:#000000;stroke-width:1.21139;stroke-linecap:round"
       d="m 16.031974,38.060214 c -2.269735,1.082124 2.560766,4.792391 2.560766,4.792391 l -2.205904,3.153705 c 0,0 -5.159645,-2.806191 -5.064444,-5.279076 0.274183,-1.50266 1.714259,-4.395807 4.709582,-2.66702 z"
       id="path4-78"
       sodipodi:nodetypes="ccccc" /><path
       style="opacity:1;fill:#00ff00;fill-opacity:0.375;stroke:#000000;stroke-width:1.21139;stroke-linecap:round"
       d="m 45.544257,32.857747 -0.879019,-5.869664 -2.287728,0.391891 -2.100987,-0.127094 -0.253381,6.149575 -5.551074,9.429824 0.764935,1.690156 2.027229,1.506844 2.349042,-3.951911 0.650164,4.286793 1.134857,-0.917315 1.676897,-2.466987 3.475236,2.858062 2.660313,-0.483323 z"
       id="path2"
       sodipodi:nodetypes="ccccccccccccccc" /><path
       style="fill:#f5b379;fill-opacity:1;stroke:#000000;stroke-width:1.42268;stroke-linecap:round"
       d="m 46.676576,34.821937 c -1.909176,-0.06287 -3.924388,1.540849 -3.531572,3.589482 0.362113,1.679859 0.850089,3.432213 1.779646,4.886783 1.067046,1.394817 3.048106,0.893812 4.404486,0.277912 1.584319,-0.927303 1.732999,-3.031481 1.6626,-4.68303 -0.169265,-1.537697 -0.403108,-3.33411 -1.662091,-4.363181 -0.858319,-0.404609 -1.850706,-0.09958 -2.653069,0.292034 z"
       id="path1" /><path
       style="opacity:0.44;fill:#008000;fill-opacity:1;stroke:none;stroke-width:1;stroke-linecap:round"
       d="m 22.903646,37.390153 0.189312,1.64071 -5.994897,0.126209 1.009667,1.766917 -3.596938,-0.946563 -0.567938,1.325187 H 9.9672888 l 1.5776052,2.58727 -5.6793768,1.262084 3.2814175,3.91246 -5.3638552,2.082437 7.3831895,2.082438 -4.1648765,2.587273 10.2228775,2.334852 -3.092105,4.164878 24.799943,-8.645273 -0.694148,3.092106 3.975563,-7.572502 -1.577605,-7.38319 -2.839685,-2.524168 -4.038669,-0.757248 -1.262084,0.0631 -2.776582,-1.135875 -2.397961,0.126209 -2.58727,-0.126209 z"
       id="path12" /></g></svg>
